<?xml version="1.0" encoding="utf-8"?>
<!-- Generator: Adobe Illustrator 15.1.0, SVG Export Plug-In . SVG Version: 6.00 Build 0)  -->
<!DOCTYPE svg PUBLIC "-//W3C//DTD SVG 1.1//EN" "http://www.w3.org/Graphics/SVG/1.1/DTD/svg11.dtd">
<svg version="1.1" id="Layer_1" xmlns="http://www.w3.org/2000/svg" xmlns:xlink="http://www.w3.org/1999/xlink" x="0px" y="0px"
	 width="277.748px" height="386.768px" viewBox="0 0 277.748 386.768" enable-background="new 0 0 277.748 386.768"
	 xml:space="preserve">
<g id="sprite_sheet_layout" display="none">
	
		<rect x="-583.127" y="-2137.232" display="inline" fill="none" stroke="#36A9E1" stroke-miterlimit="10" width="200" height="200"/>
	
		<rect x="-383.127" y="-2137.232" display="inline" fill="none" stroke="#36A9E1" stroke-miterlimit="10" width="200" height="200"/>
	
		<rect x="-183.127" y="-2137.232" display="inline" fill="none" stroke="#36A9E1" stroke-miterlimit="10" width="200" height="200"/>
	<rect x="16.873" y="-2137.232" display="inline" fill="none" stroke="#36A9E1" stroke-miterlimit="10" width="200" height="200"/>
	<rect x="216.873" y="-2137.232" display="inline" fill="none" stroke="#36A9E1" stroke-miterlimit="10" width="200" height="200"/>
	<rect x="416.873" y="-2137.232" display="inline" fill="none" stroke="#36A9E1" stroke-miterlimit="10" width="200" height="200"/>
	<rect x="616.873" y="-2137.232" display="inline" fill="none" stroke="#36A9E1" stroke-miterlimit="10" width="200" height="200"/>
	<rect x="816.873" y="-2137.232" display="inline" fill="none" stroke="#36A9E1" stroke-miterlimit="10" width="200" height="200"/>
	
		<rect x="-583.127" y="-1937.232" display="inline" fill="none" stroke="#36A9E1" stroke-miterlimit="10" width="200" height="200"/>
	
		<rect x="-383.127" y="-1937.232" display="inline" fill="none" stroke="#36A9E1" stroke-miterlimit="10" width="200" height="200"/>
	
		<rect x="-183.127" y="-1937.232" display="inline" fill="none" stroke="#36A9E1" stroke-miterlimit="10" width="200" height="200"/>
	<rect x="16.873" y="-1937.232" display="inline" fill="none" stroke="#36A9E1" stroke-miterlimit="10" width="200" height="200"/>
	<rect x="216.873" y="-1937.232" display="inline" fill="none" stroke="#36A9E1" stroke-miterlimit="10" width="200" height="200"/>
	<rect x="416.873" y="-1937.232" display="inline" fill="none" stroke="#36A9E1" stroke-miterlimit="10" width="200" height="200"/>
	<rect x="616.873" y="-1937.232" display="inline" fill="none" stroke="#36A9E1" stroke-miterlimit="10" width="200" height="200"/>
	<rect x="816.873" y="-1937.232" display="inline" fill="none" stroke="#36A9E1" stroke-miterlimit="10" width="200" height="200"/>
	
		<rect x="-583.127" y="-1737.232" display="inline" fill="none" stroke="#36A9E1" stroke-miterlimit="10" width="200" height="200"/>
	
		<rect x="-383.127" y="-1737.232" display="inline" fill="none" stroke="#36A9E1" stroke-miterlimit="10" width="200" height="200"/>
	
		<rect x="-183.127" y="-1737.232" display="inline" fill="none" stroke="#36A9E1" stroke-miterlimit="10" width="200" height="200"/>
	<rect x="16.873" y="-1737.232" display="inline" fill="none" stroke="#36A9E1" stroke-miterlimit="10" width="200" height="200"/>
	<rect x="216.873" y="-1737.232" display="inline" fill="none" stroke="#36A9E1" stroke-miterlimit="10" width="200" height="200"/>
	<rect x="416.873" y="-1737.232" display="inline" fill="none" stroke="#36A9E1" stroke-miterlimit="10" width="200" height="200"/>
	<rect x="616.873" y="-1737.232" display="inline" fill="none" stroke="#36A9E1" stroke-miterlimit="10" width="200" height="200"/>
	<rect x="816.873" y="-1737.232" display="inline" fill="none" stroke="#36A9E1" stroke-miterlimit="10" width="200" height="200"/>
	
		<rect x="-583.127" y="-1537.232" display="inline" fill="none" stroke="#36A9E1" stroke-miterlimit="10" width="200" height="200"/>
	
		<rect x="-383.127" y="-1537.232" display="inline" fill="none" stroke="#36A9E1" stroke-miterlimit="10" width="200" height="200"/>
	
		<rect x="-183.127" y="-1537.232" display="inline" fill="none" stroke="#36A9E1" stroke-miterlimit="10" width="200" height="200"/>
	<rect x="16.873" y="-1537.232" display="inline" fill="none" stroke="#36A9E1" stroke-miterlimit="10" width="200" height="200"/>
	<rect x="216.873" y="-1537.232" display="inline" fill="none" stroke="#36A9E1" stroke-miterlimit="10" width="200" height="200"/>
	<rect x="416.873" y="-1537.232" display="inline" fill="none" stroke="#36A9E1" stroke-miterlimit="10" width="200" height="200"/>
	<rect x="616.873" y="-1537.232" display="inline" fill="none" stroke="#36A9E1" stroke-miterlimit="10" width="200" height="200"/>
	<rect x="816.873" y="-1537.232" display="inline" fill="none" stroke="#36A9E1" stroke-miterlimit="10" width="200" height="200"/>
	
		<rect x="-583.127" y="-1337.232" display="inline" fill="none" stroke="#36A9E1" stroke-miterlimit="10" width="200" height="200"/>
	
		<rect x="-383.127" y="-1337.232" display="inline" fill="none" stroke="#36A9E1" stroke-miterlimit="10" width="200" height="200"/>
	
		<rect x="-183.127" y="-1337.232" display="inline" fill="none" stroke="#36A9E1" stroke-miterlimit="10" width="200" height="200"/>
	<rect x="16.873" y="-1337.232" display="inline" fill="none" stroke="#36A9E1" stroke-miterlimit="10" width="200" height="200"/>
	<rect x="216.873" y="-1337.232" display="inline" fill="none" stroke="#36A9E1" stroke-miterlimit="10" width="200" height="200"/>
	<rect x="416.873" y="-1337.232" display="inline" fill="none" stroke="#36A9E1" stroke-miterlimit="10" width="200" height="200"/>
	<rect x="616.873" y="-1337.232" display="inline" fill="none" stroke="#36A9E1" stroke-miterlimit="10" width="200" height="200"/>
	<rect x="816.873" y="-1337.232" display="inline" fill="none" stroke="#36A9E1" stroke-miterlimit="10" width="200" height="200"/>
	
		<rect x="-583.127" y="-1137.232" display="inline" fill="none" stroke="#36A9E1" stroke-miterlimit="10" width="200" height="200"/>
	
		<rect x="-383.127" y="-1137.232" display="inline" fill="none" stroke="#36A9E1" stroke-miterlimit="10" width="200" height="200"/>
	
		<rect x="-183.127" y="-1137.232" display="inline" fill="none" stroke="#36A9E1" stroke-miterlimit="10" width="200" height="200"/>
	<rect x="16.873" y="-1137.232" display="inline" fill="none" stroke="#36A9E1" stroke-miterlimit="10" width="200" height="200"/>
	<rect x="216.873" y="-1137.232" display="inline" fill="none" stroke="#36A9E1" stroke-miterlimit="10" width="200" height="200"/>
	<rect x="416.873" y="-1137.232" display="inline" fill="none" stroke="#36A9E1" stroke-miterlimit="10" width="200" height="200"/>
	<rect x="616.873" y="-1137.232" display="inline" fill="none" stroke="#36A9E1" stroke-miterlimit="10" width="200" height="200"/>
	<rect x="816.873" y="-1137.232" display="inline" fill="none" stroke="#36A9E1" stroke-miterlimit="10" width="200" height="200"/>
	<text transform="matrix(1 0 0 1 -1065.127 -2037.2322)" display="inline" fill="#1D71B8" font-family="'OpenSans'" font-size="36">breathing right</text>
	<text transform="matrix(1 0 0 1 -1065.127 -1837.2322)" display="inline" fill="#1D71B8" font-family="'OpenSans'" font-size="36">breathing left</text>
	<text transform="matrix(1 0 0 1 -1065.127 -1637.2322)" display="inline" fill="#1D71B8" font-family="'OpenSans'" font-size="36">walking right</text>
	<text transform="matrix(1 0 0 1 -1065.127 -1437.2322)" display="inline" fill="#1D71B8" font-family="'OpenSans'" font-size="36">walking left</text>
	<text transform="matrix(1 0 0 1 -1065.127 -1237.2322)" display="inline" fill="#1D71B8" font-family="'OpenSans'" font-size="36">excited right</text>
	<text transform="matrix(1 0 0 1 -1065.127 -1037.2322)" display="inline" fill="#1D71B8" font-family="'OpenSans'" font-size="36">excited left</text>
</g>
<g>
	<path fill="#706F6F" d="M138.873,386.768C299.208,260.253,276.661,39.792,276.661,39.792L138.873,0L1.086,39.792
		C1.086,39.792-21.462,260.253,138.873,386.768z"/>
	<path fill="#878787" d="M138.873,359.434C279.862,248.185,260.035,54.325,260.035,54.325L138.873,19.333L17.711,54.325
		C17.711,54.325-2.116,248.185,138.873,359.434z"/>
	<path fill="#C6C6C6" d="M20.068,132.275c0.008,0.053,0.014,0.104,0.021,0.157c0.241,1.949,0.501,3.924,0.775,5.92
		c0.019,0.132,0.036,0.265,0.055,0.396c0.284,2.042,0.583,4.105,0.904,6.194l9.411,44.9c0.356,1.326,0.723,2.657,1.096,3.991
		c0.018,0.061,0.034,0.12,0.051,0.181c1.137,4.048,2.352,8.128,3.652,12.234c0.017,0.052,0.033,0.104,0.049,0.155
		c1.311,4.13,2.705,8.282,4.192,12.453c0.007,0.02,0.014,0.038,0.021,0.059c4.496,12.605,9.826,25.367,16.136,38.058
		c43.776,7.792,149.109-12.208,186.733-55.399l0,0c23.864-78.854,16.871-147.25,16.871-147.25s-107.161,63.108-241.273,66.051
		C19.132,124.227,19.564,128.198,20.068,132.275z"/>
</g>
</svg>
