<?xml version="1.0" encoding="utf-8"?>
<!-- Generator: Adobe Illustrator 15.1.0, SVG Export Plug-In . SVG Version: 6.00 Build 0)  -->
<!DOCTYPE svg PUBLIC "-//W3C//DTD SVG 1.1//EN" "http://www.w3.org/Graphics/SVG/1.1/DTD/svg11.dtd">
<svg version="1.1" id="Layer_1" xmlns="http://www.w3.org/2000/svg" xmlns:xlink="http://www.w3.org/1999/xlink" x="0px" y="0px"
	 width="625.396px" height="306.46px" viewBox="0 0 625.396 306.46" enable-background="new 0 0 625.396 306.46"
	 xml:space="preserve">
<g id="sprite_sheet_layout" display="none">
	<rect x="231.396" y="-2173.604" display="inline" fill="none" stroke="#36A9E1" stroke-miterlimit="10" width="200" height="200"/>
	<rect x="431.396" y="-2173.604" display="inline" fill="none" stroke="#36A9E1" stroke-miterlimit="10" width="200" height="200"/>
	<rect x="631.396" y="-2173.604" display="inline" fill="none" stroke="#36A9E1" stroke-miterlimit="10" width="200" height="200"/>
	<rect x="831.396" y="-2173.604" display="inline" fill="none" stroke="#36A9E1" stroke-miterlimit="10" width="200" height="200"/>
	
		<rect x="1031.396" y="-2173.604" display="inline" fill="none" stroke="#36A9E1" stroke-miterlimit="10" width="200" height="200"/>
	
		<rect x="1231.396" y="-2173.604" display="inline" fill="none" stroke="#36A9E1" stroke-miterlimit="10" width="200" height="200"/>
	
		<rect x="1431.396" y="-2173.604" display="inline" fill="none" stroke="#36A9E1" stroke-miterlimit="10" width="200" height="200"/>
	
		<rect x="1631.396" y="-2173.604" display="inline" fill="none" stroke="#36A9E1" stroke-miterlimit="10" width="200" height="200"/>
	<rect x="231.396" y="-1973.604" display="inline" fill="none" stroke="#36A9E1" stroke-miterlimit="10" width="200" height="200"/>
	<rect x="431.396" y="-1973.604" display="inline" fill="none" stroke="#36A9E1" stroke-miterlimit="10" width="200" height="200"/>
	<rect x="631.396" y="-1973.604" display="inline" fill="none" stroke="#36A9E1" stroke-miterlimit="10" width="200" height="200"/>
	<rect x="831.396" y="-1973.604" display="inline" fill="none" stroke="#36A9E1" stroke-miterlimit="10" width="200" height="200"/>
	
		<rect x="1031.396" y="-1973.604" display="inline" fill="none" stroke="#36A9E1" stroke-miterlimit="10" width="200" height="200"/>
	
		<rect x="1231.396" y="-1973.604" display="inline" fill="none" stroke="#36A9E1" stroke-miterlimit="10" width="200" height="200"/>
	
		<rect x="1431.396" y="-1973.604" display="inline" fill="none" stroke="#36A9E1" stroke-miterlimit="10" width="200" height="200"/>
	
		<rect x="1631.396" y="-1973.604" display="inline" fill="none" stroke="#36A9E1" stroke-miterlimit="10" width="200" height="200"/>
	<rect x="231.396" y="-1773.604" display="inline" fill="none" stroke="#36A9E1" stroke-miterlimit="10" width="200" height="200"/>
	<rect x="431.396" y="-1773.604" display="inline" fill="none" stroke="#36A9E1" stroke-miterlimit="10" width="200" height="200"/>
	<rect x="631.396" y="-1773.604" display="inline" fill="none" stroke="#36A9E1" stroke-miterlimit="10" width="200" height="200"/>
	<rect x="831.396" y="-1773.604" display="inline" fill="none" stroke="#36A9E1" stroke-miterlimit="10" width="200" height="200"/>
	
		<rect x="1031.396" y="-1773.604" display="inline" fill="none" stroke="#36A9E1" stroke-miterlimit="10" width="200" height="200"/>
	
		<rect x="1231.396" y="-1773.604" display="inline" fill="none" stroke="#36A9E1" stroke-miterlimit="10" width="200" height="200"/>
	
		<rect x="1431.396" y="-1773.604" display="inline" fill="none" stroke="#36A9E1" stroke-miterlimit="10" width="200" height="200"/>
	
		<rect x="1631.396" y="-1773.604" display="inline" fill="none" stroke="#36A9E1" stroke-miterlimit="10" width="200" height="200"/>
	<rect x="231.396" y="-1573.604" display="inline" fill="none" stroke="#36A9E1" stroke-miterlimit="10" width="200" height="200"/>
	<rect x="431.396" y="-1573.604" display="inline" fill="none" stroke="#36A9E1" stroke-miterlimit="10" width="200" height="200"/>
	<rect x="631.396" y="-1573.604" display="inline" fill="none" stroke="#36A9E1" stroke-miterlimit="10" width="200" height="200"/>
	<rect x="831.396" y="-1573.604" display="inline" fill="none" stroke="#36A9E1" stroke-miterlimit="10" width="200" height="200"/>
	
		<rect x="1031.396" y="-1573.604" display="inline" fill="none" stroke="#36A9E1" stroke-miterlimit="10" width="200" height="200"/>
	
		<rect x="1231.396" y="-1573.604" display="inline" fill="none" stroke="#36A9E1" stroke-miterlimit="10" width="200" height="200"/>
	
		<rect x="1431.396" y="-1573.604" display="inline" fill="none" stroke="#36A9E1" stroke-miterlimit="10" width="200" height="200"/>
	
		<rect x="1631.396" y="-1573.604" display="inline" fill="none" stroke="#36A9E1" stroke-miterlimit="10" width="200" height="200"/>
	<rect x="231.396" y="-1373.604" display="inline" fill="none" stroke="#36A9E1" stroke-miterlimit="10" width="200" height="200"/>
	<rect x="431.396" y="-1373.604" display="inline" fill="none" stroke="#36A9E1" stroke-miterlimit="10" width="200" height="200"/>
	<rect x="631.396" y="-1373.604" display="inline" fill="none" stroke="#36A9E1" stroke-miterlimit="10" width="200" height="200"/>
	<rect x="831.396" y="-1373.604" display="inline" fill="none" stroke="#36A9E1" stroke-miterlimit="10" width="200" height="200"/>
	
		<rect x="1031.396" y="-1373.604" display="inline" fill="none" stroke="#36A9E1" stroke-miterlimit="10" width="200" height="200"/>
	
		<rect x="1231.396" y="-1373.604" display="inline" fill="none" stroke="#36A9E1" stroke-miterlimit="10" width="200" height="200"/>
	
		<rect x="1431.396" y="-1373.604" display="inline" fill="none" stroke="#36A9E1" stroke-miterlimit="10" width="200" height="200"/>
	
		<rect x="1631.396" y="-1373.604" display="inline" fill="none" stroke="#36A9E1" stroke-miterlimit="10" width="200" height="200"/>
	<rect x="231.396" y="-1173.604" display="inline" fill="none" stroke="#36A9E1" stroke-miterlimit="10" width="200" height="200"/>
	<rect x="431.396" y="-1173.604" display="inline" fill="none" stroke="#36A9E1" stroke-miterlimit="10" width="200" height="200"/>
	<rect x="631.396" y="-1173.604" display="inline" fill="none" stroke="#36A9E1" stroke-miterlimit="10" width="200" height="200"/>
	<rect x="831.396" y="-1173.604" display="inline" fill="none" stroke="#36A9E1" stroke-miterlimit="10" width="200" height="200"/>
	
		<rect x="1031.396" y="-1173.604" display="inline" fill="none" stroke="#36A9E1" stroke-miterlimit="10" width="200" height="200"/>
	
		<rect x="1231.396" y="-1173.604" display="inline" fill="none" stroke="#36A9E1" stroke-miterlimit="10" width="200" height="200"/>
	
		<rect x="1431.396" y="-1173.604" display="inline" fill="none" stroke="#36A9E1" stroke-miterlimit="10" width="200" height="200"/>
	
		<rect x="1631.396" y="-1173.604" display="inline" fill="none" stroke="#36A9E1" stroke-miterlimit="10" width="200" height="200"/>
	<text transform="matrix(1 0 0 1 -250.6045 -2073.6035)" display="inline" fill="#1D71B8" font-family="'OpenSans'" font-size="36">breathing right</text>
	<text transform="matrix(1 0 0 1 -250.6045 -1873.6035)" display="inline" fill="#1D71B8" font-family="'OpenSans'" font-size="36">breathing left</text>
	<text transform="matrix(1 0 0 1 -250.6045 -1673.6035)" display="inline" fill="#1D71B8" font-family="'OpenSans'" font-size="36">walking right</text>
	<text transform="matrix(1 0 0 1 -250.6045 -1473.6035)" display="inline" fill="#1D71B8" font-family="'OpenSans'" font-size="36">walking left</text>
	<text transform="matrix(1 0 0 1 -250.6045 -1273.6035)" display="inline" fill="#1D71B8" font-family="'OpenSans'" font-size="36">excited right</text>
	<text transform="matrix(1 0 0 1 -250.6045 -1073.6035)" display="inline" fill="#1D71B8" font-family="'OpenSans'" font-size="36">excited left</text>
</g>
<g>
	<rect fill="#575756" width="306.46" height="306.46"/>
	<rect x="318.936" fill="#575756" width="306.461" height="306.46"/>
	<rect x="153.23" y="116.966" fill="#DADADA" width="277.765" height="86.254"/>
	<polygon fill="#DADADA" points="362.897,28.749 388.38,153.23 362.897,277.712 535.405,153.23 	"/>
</g>
</svg>
