<?xml version="1.0" encoding="utf-8"?>
<!-- Generator: Adobe Illustrator 15.1.0, SVG Export Plug-In . SVG Version: 6.00 Build 0)  -->
<!DOCTYPE svg PUBLIC "-//W3C//DTD SVG 1.1//EN" "http://www.w3.org/Graphics/SVG/1.1/DTD/svg11.dtd">
<svg version="1.1" id="Layer_1" xmlns="http://www.w3.org/2000/svg" xmlns:xlink="http://www.w3.org/1999/xlink" x="0px" y="0px"
	 width="336.432px" height="284.667px" viewBox="0 0 336.432 284.667" enable-background="new 0 0 336.432 284.667"
	 xml:space="preserve">
<g id="sprite_sheet_layout" display="none">
	
		<rect x="-1031.236" y="-2200.333" display="inline" fill="none" stroke="#36A9E1" stroke-miterlimit="10" width="200" height="200"/>
	
		<rect x="-831.236" y="-2200.333" display="inline" fill="none" stroke="#36A9E1" stroke-miterlimit="10" width="200" height="200"/>
	
		<rect x="-631.236" y="-2200.333" display="inline" fill="none" stroke="#36A9E1" stroke-miterlimit="10" width="200" height="200"/>
	
		<rect x="-431.236" y="-2200.333" display="inline" fill="none" stroke="#36A9E1" stroke-miterlimit="10" width="200" height="200"/>
	
		<rect x="-231.236" y="-2200.333" display="inline" fill="none" stroke="#36A9E1" stroke-miterlimit="10" width="200" height="200"/>
	<rect x="-31.236" y="-2200.333" display="inline" fill="none" stroke="#36A9E1" stroke-miterlimit="10" width="200" height="200"/>
	
		<rect x="168.765" y="-2200.333" display="inline" fill="none" stroke="#36A9E1" stroke-miterlimit="10" width="199.999" height="200"/>
	<rect x="368.764" y="-2200.333" display="inline" fill="none" stroke="#36A9E1" stroke-miterlimit="10" width="200" height="200"/>
	
		<rect x="-1031.236" y="-2000.333" display="inline" fill="none" stroke="#36A9E1" stroke-miterlimit="10" width="200" height="200"/>
	
		<rect x="-831.236" y="-2000.333" display="inline" fill="none" stroke="#36A9E1" stroke-miterlimit="10" width="200" height="200"/>
	
		<rect x="-631.236" y="-2000.333" display="inline" fill="none" stroke="#36A9E1" stroke-miterlimit="10" width="200" height="200"/>
	
		<rect x="-431.236" y="-2000.333" display="inline" fill="none" stroke="#36A9E1" stroke-miterlimit="10" width="200" height="200"/>
	
		<rect x="-231.236" y="-2000.333" display="inline" fill="none" stroke="#36A9E1" stroke-miterlimit="10" width="200" height="200"/>
	<rect x="-31.236" y="-2000.333" display="inline" fill="none" stroke="#36A9E1" stroke-miterlimit="10" width="200" height="200"/>
	
		<rect x="168.765" y="-2000.333" display="inline" fill="none" stroke="#36A9E1" stroke-miterlimit="10" width="199.999" height="200"/>
	<rect x="368.764" y="-2000.333" display="inline" fill="none" stroke="#36A9E1" stroke-miterlimit="10" width="200" height="200"/>
	
		<rect x="-1031.236" y="-1800.333" display="inline" fill="none" stroke="#36A9E1" stroke-miterlimit="10" width="200" height="200"/>
	
		<rect x="-831.236" y="-1800.333" display="inline" fill="none" stroke="#36A9E1" stroke-miterlimit="10" width="200" height="200"/>
	
		<rect x="-631.236" y="-1800.333" display="inline" fill="none" stroke="#36A9E1" stroke-miterlimit="10" width="200" height="200"/>
	
		<rect x="-431.236" y="-1800.333" display="inline" fill="none" stroke="#36A9E1" stroke-miterlimit="10" width="200" height="200"/>
	
		<rect x="-231.236" y="-1800.333" display="inline" fill="none" stroke="#36A9E1" stroke-miterlimit="10" width="200" height="200"/>
	<rect x="-31.236" y="-1800.333" display="inline" fill="none" stroke="#36A9E1" stroke-miterlimit="10" width="200" height="200"/>
	
		<rect x="168.765" y="-1800.333" display="inline" fill="none" stroke="#36A9E1" stroke-miterlimit="10" width="199.999" height="200"/>
	<rect x="368.764" y="-1800.333" display="inline" fill="none" stroke="#36A9E1" stroke-miterlimit="10" width="200" height="200"/>
	
		<rect x="-1031.236" y="-1600.333" display="inline" fill="none" stroke="#36A9E1" stroke-miterlimit="10" width="200" height="200"/>
	
		<rect x="-831.236" y="-1600.333" display="inline" fill="none" stroke="#36A9E1" stroke-miterlimit="10" width="200" height="200"/>
	
		<rect x="-631.236" y="-1600.333" display="inline" fill="none" stroke="#36A9E1" stroke-miterlimit="10" width="200" height="200"/>
	
		<rect x="-431.236" y="-1600.333" display="inline" fill="none" stroke="#36A9E1" stroke-miterlimit="10" width="200" height="200"/>
	
		<rect x="-231.236" y="-1600.333" display="inline" fill="none" stroke="#36A9E1" stroke-miterlimit="10" width="200" height="200"/>
	<rect x="-31.236" y="-1600.333" display="inline" fill="none" stroke="#36A9E1" stroke-miterlimit="10" width="200" height="200"/>
	
		<rect x="168.765" y="-1600.333" display="inline" fill="none" stroke="#36A9E1" stroke-miterlimit="10" width="199.999" height="200"/>
	<rect x="368.764" y="-1600.333" display="inline" fill="none" stroke="#36A9E1" stroke-miterlimit="10" width="200" height="200"/>
	
		<rect x="-1031.236" y="-1400.333" display="inline" fill="none" stroke="#36A9E1" stroke-miterlimit="10" width="200" height="200"/>
	
		<rect x="-831.236" y="-1400.333" display="inline" fill="none" stroke="#36A9E1" stroke-miterlimit="10" width="200" height="200"/>
	
		<rect x="-631.236" y="-1400.333" display="inline" fill="none" stroke="#36A9E1" stroke-miterlimit="10" width="200" height="200"/>
	
		<rect x="-431.236" y="-1400.333" display="inline" fill="none" stroke="#36A9E1" stroke-miterlimit="10" width="200" height="200"/>
	
		<rect x="-231.236" y="-1400.333" display="inline" fill="none" stroke="#36A9E1" stroke-miterlimit="10" width="200" height="200"/>
	<rect x="-31.236" y="-1400.333" display="inline" fill="none" stroke="#36A9E1" stroke-miterlimit="10" width="200" height="200"/>
	
		<rect x="168.765" y="-1400.333" display="inline" fill="none" stroke="#36A9E1" stroke-miterlimit="10" width="199.999" height="200"/>
	<rect x="368.764" y="-1400.333" display="inline" fill="none" stroke="#36A9E1" stroke-miterlimit="10" width="200" height="200"/>
	
		<rect x="-1031.236" y="-1200.333" display="inline" fill="none" stroke="#36A9E1" stroke-miterlimit="10" width="200" height="200"/>
	
		<rect x="-831.236" y="-1200.333" display="inline" fill="none" stroke="#36A9E1" stroke-miterlimit="10" width="200" height="200"/>
	
		<rect x="-631.236" y="-1200.333" display="inline" fill="none" stroke="#36A9E1" stroke-miterlimit="10" width="200" height="200"/>
	
		<rect x="-431.236" y="-1200.333" display="inline" fill="none" stroke="#36A9E1" stroke-miterlimit="10" width="200" height="200"/>
	
		<rect x="-231.236" y="-1200.333" display="inline" fill="none" stroke="#36A9E1" stroke-miterlimit="10" width="200" height="200"/>
	<rect x="-31.236" y="-1200.333" display="inline" fill="none" stroke="#36A9E1" stroke-miterlimit="10" width="200" height="200"/>
	
		<rect x="168.765" y="-1200.333" display="inline" fill="none" stroke="#36A9E1" stroke-miterlimit="10" width="199.999" height="200"/>
	<rect x="368.764" y="-1200.333" display="inline" fill="none" stroke="#36A9E1" stroke-miterlimit="10" width="200" height="200"/>
	<text transform="matrix(1 0 0 1 -1513.2363 -2100.333)" display="inline" fill="#1D71B8" font-family="'OpenSans'" font-size="36">breathing right</text>
	<text transform="matrix(1 0 0 1 -1513.2363 -1900.333)" display="inline" fill="#1D71B8" font-family="'OpenSans'" font-size="36">breathing left</text>
	<text transform="matrix(1 0 0 1 -1513.2363 -1700.333)" display="inline" fill="#1D71B8" font-family="'OpenSans'" font-size="36">walking right</text>
	<text transform="matrix(1 0 0 1 -1513.2363 -1500.333)" display="inline" fill="#1D71B8" font-family="'OpenSans'" font-size="36">walking left</text>
	<text transform="matrix(1 0 0 1 -1513.2363 -1300.333)" display="inline" fill="#1D71B8" font-family="'OpenSans'" font-size="36">excited right</text>
	<text transform="matrix(1 0 0 1 -1513.2363 -1100.333)" display="inline" fill="#1D71B8" font-family="'OpenSans'" font-size="36">excited left</text>
</g>
<g>
	<g>
		<path fill="#878787" d="M142.334,0C63.725,0,0,63.725,0,142.333c0,78.609,63.725,142.334,142.334,142.334
			c78.608,0,142.333-63.726,142.333-142.334C284.667,63.725,220.942,0,142.334,0z M185.001,185.001H99.666V99.666h85.335V185.001z"
			/>
		<g>
			<path fill="#575756" d="M142.334,252.667C81.496,252.667,32,203.171,32,142.333C32,81.495,81.496,32,142.334,32
				c60.837,0,110.332,49.495,110.332,110.333C252.666,203.171,203.171,252.667,142.334,252.667z M142.334,40
				C85.907,40,40,85.906,40,142.333c0,56.426,45.907,102.334,102.334,102.334c56.426,0,102.332-45.908,102.332-102.334
				C244.666,85.906,198.76,40,142.334,40z"/>
		</g>
		<g>
			<polygon fill="#C6C6C6" points="188.501,188.501 181.501,188.501 181.501,103.166 96.166,103.166 96.166,96.166 188.501,96.166 
							"/>
		</g>
		<g>
			<polygon fill="#575756" points="188.501,188.501 96.166,188.501 96.166,96.166 103.166,96.166 103.166,181.501 188.501,181.501 
							"/>
		</g>
	</g>
	<g>
		<path fill="#706F6F" d="M312.857,207.225c0-3.447,1.077-6.208,3.232-8.276c2.154-2.068,4.827-3.104,8.02-3.104
			c3.188,0,5.86,1.033,8.019,3.104c2.153,2.068,3.232,4.829,3.232,8.276c0,3.537-1.079,6.358-3.232,8.472
			c-2.157,2.111-4.831,3.168-8.019,3.168c-3.191,0-5.864-1.057-8.02-3.168C313.936,213.583,312.857,210.762,312.857,207.225z
			 M312.435,109.298l-0.647-24.647h24.646l-0.647,24.647l-3.459,67.452h-16.432L312.435,109.298z"/>
	</g>
</g>
</svg>
