<?xml version="1.0" encoding="utf-8"?>
<!-- Generator: Adobe Illustrator 15.1.0, SVG Export Plug-In . SVG Version: 6.00 Build 0)  -->
<!DOCTYPE svg PUBLIC "-//W3C//DTD SVG 1.1//EN" "http://www.w3.org/Graphics/SVG/1.1/DTD/svg11.dtd">
<svg version="1.1" id="Layer_1" xmlns="http://www.w3.org/2000/svg" xmlns:xlink="http://www.w3.org/1999/xlink" x="0px" y="0px"
	 width="382px" height="642px" viewBox="0 0 382 642" enable-background="new 0 0 382 642" xml:space="preserve">
<g id="sprite_sheet_layout" display="none">
	<rect x="3006" y="-1970" display="inline" fill="none" stroke="#36A9E1" stroke-miterlimit="10" width="200" height="200"/>
	<rect x="3206" y="-1970" display="inline" fill="none" stroke="#36A9E1" stroke-miterlimit="10" width="200" height="200"/>
	<rect x="3406" y="-1970" display="inline" fill="none" stroke="#36A9E1" stroke-miterlimit="10" width="200" height="200"/>
	<rect x="3606" y="-1970" display="inline" fill="none" stroke="#36A9E1" stroke-miterlimit="10" width="200" height="200"/>
	<rect x="3806" y="-1970" display="inline" fill="none" stroke="#36A9E1" stroke-miterlimit="10" width="200" height="200"/>
	<rect x="4006" y="-1970" display="inline" fill="none" stroke="#36A9E1" stroke-miterlimit="10" width="200" height="200"/>
	<rect x="4206" y="-1970" display="inline" fill="none" stroke="#36A9E1" stroke-miterlimit="10" width="200" height="200"/>
	<rect x="4406" y="-1970" display="inline" fill="none" stroke="#36A9E1" stroke-miterlimit="10" width="200" height="200"/>
	<rect x="3006" y="-1770" display="inline" fill="none" stroke="#36A9E1" stroke-miterlimit="10" width="200" height="200"/>
	<rect x="3206" y="-1770" display="inline" fill="none" stroke="#36A9E1" stroke-miterlimit="10" width="200" height="200"/>
	<rect x="3406" y="-1770" display="inline" fill="none" stroke="#36A9E1" stroke-miterlimit="10" width="200" height="200"/>
	<rect x="3606" y="-1770" display="inline" fill="none" stroke="#36A9E1" stroke-miterlimit="10" width="200" height="200"/>
	<rect x="3806" y="-1770" display="inline" fill="none" stroke="#36A9E1" stroke-miterlimit="10" width="200" height="200"/>
	<rect x="4006" y="-1770" display="inline" fill="none" stroke="#36A9E1" stroke-miterlimit="10" width="200" height="200"/>
	<rect x="4206" y="-1770" display="inline" fill="none" stroke="#36A9E1" stroke-miterlimit="10" width="200" height="200"/>
	<rect x="4406" y="-1770" display="inline" fill="none" stroke="#36A9E1" stroke-miterlimit="10" width="200" height="200"/>
	<rect x="3006" y="-1570" display="inline" fill="none" stroke="#36A9E1" stroke-miterlimit="10" width="200" height="200"/>
	<rect x="3206" y="-1570" display="inline" fill="none" stroke="#36A9E1" stroke-miterlimit="10" width="200" height="200"/>
	<rect x="3406" y="-1570" display="inline" fill="none" stroke="#36A9E1" stroke-miterlimit="10" width="200" height="200"/>
	<rect x="3606" y="-1570" display="inline" fill="none" stroke="#36A9E1" stroke-miterlimit="10" width="200" height="200"/>
	<rect x="3806" y="-1570" display="inline" fill="none" stroke="#36A9E1" stroke-miterlimit="10" width="200" height="200"/>
	<rect x="4006" y="-1570" display="inline" fill="none" stroke="#36A9E1" stroke-miterlimit="10" width="200" height="200"/>
	<rect x="4206" y="-1570" display="inline" fill="none" stroke="#36A9E1" stroke-miterlimit="10" width="200" height="200"/>
	<rect x="4406" y="-1570" display="inline" fill="none" stroke="#36A9E1" stroke-miterlimit="10" width="200" height="200"/>
	<rect x="3006" y="-1370" display="inline" fill="none" stroke="#36A9E1" stroke-miterlimit="10" width="200" height="200"/>
	<rect x="3206" y="-1370" display="inline" fill="none" stroke="#36A9E1" stroke-miterlimit="10" width="200" height="200"/>
	<rect x="3406" y="-1370" display="inline" fill="none" stroke="#36A9E1" stroke-miterlimit="10" width="200" height="200"/>
	<rect x="3606" y="-1370" display="inline" fill="none" stroke="#36A9E1" stroke-miterlimit="10" width="200" height="200"/>
	<rect x="3806" y="-1370" display="inline" fill="none" stroke="#36A9E1" stroke-miterlimit="10" width="200" height="200"/>
	<rect x="4006" y="-1370" display="inline" fill="none" stroke="#36A9E1" stroke-miterlimit="10" width="200" height="200"/>
	<rect x="4206" y="-1370" display="inline" fill="none" stroke="#36A9E1" stroke-miterlimit="10" width="200" height="200"/>
	<rect x="4406" y="-1370" display="inline" fill="none" stroke="#36A9E1" stroke-miterlimit="10" width="200" height="200"/>
	<rect x="3006" y="-1170" display="inline" fill="none" stroke="#36A9E1" stroke-miterlimit="10" width="200" height="200"/>
	<rect x="3206" y="-1170" display="inline" fill="none" stroke="#36A9E1" stroke-miterlimit="10" width="200" height="200"/>
	<rect x="3406" y="-1170" display="inline" fill="none" stroke="#36A9E1" stroke-miterlimit="10" width="200" height="200"/>
	<rect x="3606" y="-1170" display="inline" fill="none" stroke="#36A9E1" stroke-miterlimit="10" width="200" height="200"/>
	<rect x="3806" y="-1170" display="inline" fill="none" stroke="#36A9E1" stroke-miterlimit="10" width="200" height="200"/>
	<rect x="4006" y="-1170" display="inline" fill="none" stroke="#36A9E1" stroke-miterlimit="10" width="200" height="200"/>
	<rect x="4206" y="-1170" display="inline" fill="none" stroke="#36A9E1" stroke-miterlimit="10" width="200" height="200"/>
	<rect x="4406" y="-1170" display="inline" fill="none" stroke="#36A9E1" stroke-miterlimit="10" width="200" height="200"/>
	<rect x="3006" y="-970" display="inline" fill="none" stroke="#36A9E1" stroke-miterlimit="10" width="200" height="200"/>
	<rect x="3206" y="-970" display="inline" fill="none" stroke="#36A9E1" stroke-miterlimit="10" width="200" height="200"/>
	<rect x="3406" y="-970" display="inline" fill="none" stroke="#36A9E1" stroke-miterlimit="10" width="200" height="200"/>
	<rect x="3606" y="-970" display="inline" fill="none" stroke="#36A9E1" stroke-miterlimit="10" width="200" height="200"/>
	<rect x="3806" y="-970" display="inline" fill="none" stroke="#36A9E1" stroke-miterlimit="10" width="200" height="200"/>
	<rect x="4006" y="-970" display="inline" fill="none" stroke="#36A9E1" stroke-miterlimit="10" width="200" height="200"/>
	<rect x="4206" y="-970" display="inline" fill="none" stroke="#36A9E1" stroke-miterlimit="10" width="200" height="200"/>
	<rect x="4406" y="-970" display="inline" fill="none" stroke="#36A9E1" stroke-miterlimit="10" width="200" height="200"/>
	<text transform="matrix(1 0 0 1 2524 -1870)" display="inline" fill="#1D71B8" font-family="'OpenSans'" font-size="36">breathing right</text>
	<text transform="matrix(1 0 0 1 2524 -1670)" display="inline" fill="#1D71B8" font-family="'OpenSans'" font-size="36">breathing left</text>
	<text transform="matrix(1 0 0 1 2524 -1470)" display="inline" fill="#1D71B8" font-family="'OpenSans'" font-size="36">walking right</text>
	<text transform="matrix(1 0 0 1 2524 -1270)" display="inline" fill="#1D71B8" font-family="'OpenSans'" font-size="36">walking left</text>
	<text transform="matrix(1 0 0 1 2524 -1070)" display="inline" fill="#1D71B8" font-family="'OpenSans'" font-size="36">excited right</text>
	<text transform="matrix(1 0 0 1 2524 -870)" display="inline" fill="#1D71B8" font-family="'OpenSans'" font-size="36">excited left</text>
</g>
<g>
	<path fill="#E94E1B" d="M0,0v451c0,105.486,85.514,191,191,191c105.486,0,191-85.514,191-191V0H0z"/>
	<path fill="#FFFFFF" d="M191,110.667c-79.897,0-144.667,64.77-144.667,144.667C46.333,335.23,111.103,400,191,400
		c79.896,0,144.667-64.77,144.667-144.667C335.667,175.436,270.896,110.667,191,110.667z M191,349.863
		c-52.207,0-94.529-42.323-94.529-94.53s42.322-94.529,94.529-94.529s94.529,42.322,94.529,94.529
		C285.529,307.541,243.207,349.863,191,349.863z"/>
	<circle fill="#E94E1B" cx="191" cy="451" r="191"/>
	<path fill="#FFFFFF" d="M274.119,300.393c-16.008,29.466-47.229,49.47-83.119,49.47c-35.891,0-67.111-20.004-83.119-49.47
		c-14.871,8.225-28.393,18.588-40.154,30.675C93.188,372.424,138.871,400,191,400s97.813-27.576,123.273-68.932
		C302.512,318.981,288.99,308.618,274.119,300.393z"/>
</g>
</svg>
