<?xml version="1.0" encoding="utf-8"?>
<!-- Generator: Adobe Illustrator 15.1.0, SVG Export Plug-In . SVG Version: 6.00 Build 0)  -->
<!DOCTYPE svg PUBLIC "-//W3C//DTD SVG 1.1//EN" "http://www.w3.org/Graphics/SVG/1.1/DTD/svg11.dtd">
<svg version="1.1" id="Layer_1" xmlns="http://www.w3.org/2000/svg" xmlns:xlink="http://www.w3.org/1999/xlink" x="0px" y="0px"
	 width="382px" height="642px" viewBox="0 0 382 642" enable-background="new 0 0 382 642" xml:space="preserve">
<g id="sprite_sheet_layout" display="none">
	<rect x="2330" y="-1970" display="inline" fill="none" stroke="#36A9E1" stroke-miterlimit="10" width="200" height="200"/>
	<rect x="2530" y="-1970" display="inline" fill="none" stroke="#36A9E1" stroke-miterlimit="10" width="200" height="200"/>
	<rect x="2730" y="-1970" display="inline" fill="none" stroke="#36A9E1" stroke-miterlimit="10" width="200" height="200"/>
	<rect x="2930" y="-1970" display="inline" fill="none" stroke="#36A9E1" stroke-miterlimit="10" width="200" height="200"/>
	<rect x="3130" y="-1970" display="inline" fill="none" stroke="#36A9E1" stroke-miterlimit="10" width="200" height="200"/>
	<rect x="3330" y="-1970" display="inline" fill="none" stroke="#36A9E1" stroke-miterlimit="10" width="200" height="200"/>
	<rect x="3530" y="-1970" display="inline" fill="none" stroke="#36A9E1" stroke-miterlimit="10" width="200" height="200"/>
	<rect x="3730" y="-1970" display="inline" fill="none" stroke="#36A9E1" stroke-miterlimit="10" width="200" height="200"/>
	<rect x="2330" y="-1770" display="inline" fill="none" stroke="#36A9E1" stroke-miterlimit="10" width="200" height="200"/>
	<rect x="2530" y="-1770" display="inline" fill="none" stroke="#36A9E1" stroke-miterlimit="10" width="200" height="200"/>
	<rect x="2730" y="-1770" display="inline" fill="none" stroke="#36A9E1" stroke-miterlimit="10" width="200" height="200"/>
	<rect x="2930" y="-1770" display="inline" fill="none" stroke="#36A9E1" stroke-miterlimit="10" width="200" height="200"/>
	<rect x="3130" y="-1770" display="inline" fill="none" stroke="#36A9E1" stroke-miterlimit="10" width="200" height="200"/>
	<rect x="3330" y="-1770" display="inline" fill="none" stroke="#36A9E1" stroke-miterlimit="10" width="200" height="200"/>
	<rect x="3530" y="-1770" display="inline" fill="none" stroke="#36A9E1" stroke-miterlimit="10" width="200" height="200"/>
	<rect x="3730" y="-1770" display="inline" fill="none" stroke="#36A9E1" stroke-miterlimit="10" width="200" height="200"/>
	<rect x="2330" y="-1570" display="inline" fill="none" stroke="#36A9E1" stroke-miterlimit="10" width="200" height="200"/>
	<rect x="2530" y="-1570" display="inline" fill="none" stroke="#36A9E1" stroke-miterlimit="10" width="200" height="200"/>
	<rect x="2730" y="-1570" display="inline" fill="none" stroke="#36A9E1" stroke-miterlimit="10" width="200" height="200"/>
	<rect x="2930" y="-1570" display="inline" fill="none" stroke="#36A9E1" stroke-miterlimit="10" width="200" height="200"/>
	<rect x="3130" y="-1570" display="inline" fill="none" stroke="#36A9E1" stroke-miterlimit="10" width="200" height="200"/>
	<rect x="3330" y="-1570" display="inline" fill="none" stroke="#36A9E1" stroke-miterlimit="10" width="200" height="200"/>
	<rect x="3530" y="-1570" display="inline" fill="none" stroke="#36A9E1" stroke-miterlimit="10" width="200" height="200"/>
	<rect x="3730" y="-1570" display="inline" fill="none" stroke="#36A9E1" stroke-miterlimit="10" width="200" height="200"/>
	<rect x="2330" y="-1370" display="inline" fill="none" stroke="#36A9E1" stroke-miterlimit="10" width="200" height="200"/>
	<rect x="2530" y="-1370" display="inline" fill="none" stroke="#36A9E1" stroke-miterlimit="10" width="200" height="200"/>
	<rect x="2730" y="-1370" display="inline" fill="none" stroke="#36A9E1" stroke-miterlimit="10" width="200" height="200"/>
	<rect x="2930" y="-1370" display="inline" fill="none" stroke="#36A9E1" stroke-miterlimit="10" width="200" height="200"/>
	<rect x="3130" y="-1370" display="inline" fill="none" stroke="#36A9E1" stroke-miterlimit="10" width="200" height="200"/>
	<rect x="3330" y="-1370" display="inline" fill="none" stroke="#36A9E1" stroke-miterlimit="10" width="200" height="200"/>
	<rect x="3530" y="-1370" display="inline" fill="none" stroke="#36A9E1" stroke-miterlimit="10" width="200" height="200"/>
	<rect x="3730" y="-1370" display="inline" fill="none" stroke="#36A9E1" stroke-miterlimit="10" width="200" height="200"/>
	<rect x="2330" y="-1170" display="inline" fill="none" stroke="#36A9E1" stroke-miterlimit="10" width="200" height="200"/>
	<rect x="2530" y="-1170" display="inline" fill="none" stroke="#36A9E1" stroke-miterlimit="10" width="200" height="200"/>
	<rect x="2730" y="-1170" display="inline" fill="none" stroke="#36A9E1" stroke-miterlimit="10" width="200" height="200"/>
	<rect x="2930" y="-1170" display="inline" fill="none" stroke="#36A9E1" stroke-miterlimit="10" width="200" height="200"/>
	<rect x="3130" y="-1170" display="inline" fill="none" stroke="#36A9E1" stroke-miterlimit="10" width="200" height="200"/>
	<rect x="3330" y="-1170" display="inline" fill="none" stroke="#36A9E1" stroke-miterlimit="10" width="200" height="200"/>
	<rect x="3530" y="-1170" display="inline" fill="none" stroke="#36A9E1" stroke-miterlimit="10" width="200" height="200"/>
	<rect x="3730" y="-1170" display="inline" fill="none" stroke="#36A9E1" stroke-miterlimit="10" width="200" height="200"/>
	<rect x="2330" y="-970" display="inline" fill="none" stroke="#36A9E1" stroke-miterlimit="10" width="200" height="200"/>
	<rect x="2530" y="-970" display="inline" fill="none" stroke="#36A9E1" stroke-miterlimit="10" width="200" height="200"/>
	<rect x="2730" y="-970" display="inline" fill="none" stroke="#36A9E1" stroke-miterlimit="10" width="200" height="200"/>
	<rect x="2930" y="-970" display="inline" fill="none" stroke="#36A9E1" stroke-miterlimit="10" width="200" height="200"/>
	<rect x="3130" y="-970" display="inline" fill="none" stroke="#36A9E1" stroke-miterlimit="10" width="200" height="200"/>
	<rect x="3330" y="-970" display="inline" fill="none" stroke="#36A9E1" stroke-miterlimit="10" width="200" height="200"/>
	<rect x="3530" y="-970" display="inline" fill="none" stroke="#36A9E1" stroke-miterlimit="10" width="200" height="200"/>
	<rect x="3730" y="-970" display="inline" fill="none" stroke="#36A9E1" stroke-miterlimit="10" width="200" height="200"/>
	<text transform="matrix(1 0 0 1 1848 -1870)" display="inline" fill="#1D71B8" font-family="'OpenSans'" font-size="36">breathing right</text>
	<text transform="matrix(1 0 0 1 1848 -1670)" display="inline" fill="#1D71B8" font-family="'OpenSans'" font-size="36">breathing left</text>
	<text transform="matrix(1 0 0 1 1848 -1470)" display="inline" fill="#1D71B8" font-family="'OpenSans'" font-size="36">walking right</text>
	<text transform="matrix(1 0 0 1 1848 -1270)" display="inline" fill="#1D71B8" font-family="'OpenSans'" font-size="36">walking left</text>
	<text transform="matrix(1 0 0 1 1848 -1070)" display="inline" fill="#1D71B8" font-family="'OpenSans'" font-size="36">excited right</text>
	<text transform="matrix(1 0 0 1 1848 -870)" display="inline" fill="#1D71B8" font-family="'OpenSans'" font-size="36">excited left</text>
</g>
<polygon fill="#36A9E1" points="0,0 382,0 382,601.576 335.667,642 46.333,642 0,601.576 "/>
<g>
	<path fill="#FFFFFF" d="M73.667,138v234.666h234.667V138H73.667z M267.318,331.303H114.681V178.664h152.637V331.303
		L267.318,331.303z"/>
</g>
<rect x="46.333" y="178.664" fill="#36A9E1" width="281.684" height="40.664"/>
</svg>
