<?xml version="1.0" encoding="utf-8"?>
<!-- Generator: Adobe Illustrator 15.1.0, SVG Export Plug-In . SVG Version: 6.00 Build 0)  -->
<!DOCTYPE svg PUBLIC "-//W3C//DTD SVG 1.1//EN" "http://www.w3.org/Graphics/SVG/1.1/DTD/svg11.dtd">
<svg version="1.1" id="Layer_1" xmlns="http://www.w3.org/2000/svg" xmlns:xlink="http://www.w3.org/1999/xlink" x="0px" y="0px"
	 width="382px" height="642px" viewBox="0 0 382 642" enable-background="new 0 0 382 642" xml:space="preserve">
<g id="sprite_sheet_layout" display="none">
	<rect x="1686" y="-1970" display="inline" fill="none" stroke="#36A9E1" stroke-miterlimit="10" width="200" height="200"/>
	<rect x="1886" y="-1970" display="inline" fill="none" stroke="#36A9E1" stroke-miterlimit="10" width="200" height="200"/>
	<rect x="2086" y="-1970" display="inline" fill="none" stroke="#36A9E1" stroke-miterlimit="10" width="200" height="200"/>
	<rect x="2286" y="-1970" display="inline" fill="none" stroke="#36A9E1" stroke-miterlimit="10" width="200" height="200"/>
	<rect x="2486" y="-1970" display="inline" fill="none" stroke="#36A9E1" stroke-miterlimit="10" width="200" height="200"/>
	<rect x="2686" y="-1970" display="inline" fill="none" stroke="#36A9E1" stroke-miterlimit="10" width="200" height="200"/>
	<rect x="2886" y="-1970" display="inline" fill="none" stroke="#36A9E1" stroke-miterlimit="10" width="200" height="200"/>
	<rect x="3086" y="-1970" display="inline" fill="none" stroke="#36A9E1" stroke-miterlimit="10" width="200" height="200"/>
	<rect x="1686" y="-1770" display="inline" fill="none" stroke="#36A9E1" stroke-miterlimit="10" width="200" height="200"/>
	<rect x="1886" y="-1770" display="inline" fill="none" stroke="#36A9E1" stroke-miterlimit="10" width="200" height="200"/>
	<rect x="2086" y="-1770" display="inline" fill="none" stroke="#36A9E1" stroke-miterlimit="10" width="200" height="200"/>
	<rect x="2286" y="-1770" display="inline" fill="none" stroke="#36A9E1" stroke-miterlimit="10" width="200" height="200"/>
	<rect x="2486" y="-1770" display="inline" fill="none" stroke="#36A9E1" stroke-miterlimit="10" width="200" height="200"/>
	<rect x="2686" y="-1770" display="inline" fill="none" stroke="#36A9E1" stroke-miterlimit="10" width="200" height="200"/>
	<rect x="2886" y="-1770" display="inline" fill="none" stroke="#36A9E1" stroke-miterlimit="10" width="200" height="200"/>
	<rect x="3086" y="-1770" display="inline" fill="none" stroke="#36A9E1" stroke-miterlimit="10" width="200" height="200"/>
	<rect x="1686" y="-1570" display="inline" fill="none" stroke="#36A9E1" stroke-miterlimit="10" width="200" height="200"/>
	<rect x="1886" y="-1570" display="inline" fill="none" stroke="#36A9E1" stroke-miterlimit="10" width="200" height="200"/>
	<rect x="2086" y="-1570" display="inline" fill="none" stroke="#36A9E1" stroke-miterlimit="10" width="200" height="200"/>
	<rect x="2286" y="-1570" display="inline" fill="none" stroke="#36A9E1" stroke-miterlimit="10" width="200" height="200"/>
	<rect x="2486" y="-1570" display="inline" fill="none" stroke="#36A9E1" stroke-miterlimit="10" width="200" height="200"/>
	<rect x="2686" y="-1570" display="inline" fill="none" stroke="#36A9E1" stroke-miterlimit="10" width="200" height="200"/>
	<rect x="2886" y="-1570" display="inline" fill="none" stroke="#36A9E1" stroke-miterlimit="10" width="200" height="200"/>
	<rect x="3086" y="-1570" display="inline" fill="none" stroke="#36A9E1" stroke-miterlimit="10" width="200" height="200"/>
	<rect x="1686" y="-1370" display="inline" fill="none" stroke="#36A9E1" stroke-miterlimit="10" width="200" height="200"/>
	<rect x="1886" y="-1370" display="inline" fill="none" stroke="#36A9E1" stroke-miterlimit="10" width="200" height="200"/>
	<rect x="2086" y="-1370" display="inline" fill="none" stroke="#36A9E1" stroke-miterlimit="10" width="200" height="200"/>
	<rect x="2286" y="-1370" display="inline" fill="none" stroke="#36A9E1" stroke-miterlimit="10" width="200" height="200"/>
	<rect x="2486" y="-1370" display="inline" fill="none" stroke="#36A9E1" stroke-miterlimit="10" width="200" height="200"/>
	<rect x="2686" y="-1370" display="inline" fill="none" stroke="#36A9E1" stroke-miterlimit="10" width="200" height="200"/>
	<rect x="2886" y="-1370" display="inline" fill="none" stroke="#36A9E1" stroke-miterlimit="10" width="200" height="200"/>
	<rect x="3086" y="-1370" display="inline" fill="none" stroke="#36A9E1" stroke-miterlimit="10" width="200" height="200"/>
	<rect x="1686" y="-1170" display="inline" fill="none" stroke="#36A9E1" stroke-miterlimit="10" width="200" height="200"/>
	<rect x="1886" y="-1170" display="inline" fill="none" stroke="#36A9E1" stroke-miterlimit="10" width="200" height="200"/>
	<rect x="2086" y="-1170" display="inline" fill="none" stroke="#36A9E1" stroke-miterlimit="10" width="200" height="200"/>
	<rect x="2286" y="-1170" display="inline" fill="none" stroke="#36A9E1" stroke-miterlimit="10" width="200" height="200"/>
	<rect x="2486" y="-1170" display="inline" fill="none" stroke="#36A9E1" stroke-miterlimit="10" width="200" height="200"/>
	<rect x="2686" y="-1170" display="inline" fill="none" stroke="#36A9E1" stroke-miterlimit="10" width="200" height="200"/>
	<rect x="2886" y="-1170" display="inline" fill="none" stroke="#36A9E1" stroke-miterlimit="10" width="200" height="200"/>
	<rect x="3086" y="-1170" display="inline" fill="none" stroke="#36A9E1" stroke-miterlimit="10" width="200" height="200"/>
	<rect x="1686" y="-970" display="inline" fill="none" stroke="#36A9E1" stroke-miterlimit="10" width="200" height="200"/>
	<rect x="1886" y="-970" display="inline" fill="none" stroke="#36A9E1" stroke-miterlimit="10" width="200" height="200"/>
	<rect x="2086" y="-970" display="inline" fill="none" stroke="#36A9E1" stroke-miterlimit="10" width="200" height="200"/>
	<rect x="2286" y="-970" display="inline" fill="none" stroke="#36A9E1" stroke-miterlimit="10" width="200" height="200"/>
	<rect x="2486" y="-970" display="inline" fill="none" stroke="#36A9E1" stroke-miterlimit="10" width="200" height="200"/>
	<rect x="2686" y="-970" display="inline" fill="none" stroke="#36A9E1" stroke-miterlimit="10" width="200" height="200"/>
	<rect x="2886" y="-970" display="inline" fill="none" stroke="#36A9E1" stroke-miterlimit="10" width="200" height="200"/>
	<rect x="3086" y="-970" display="inline" fill="none" stroke="#36A9E1" stroke-miterlimit="10" width="200" height="200"/>
	<text transform="matrix(1 0 0 1 1204 -1870)" display="inline" fill="#1D71B8" font-family="'OpenSans'" font-size="36">breathing right</text>
	<text transform="matrix(1 0 0 1 1204 -1670)" display="inline" fill="#1D71B8" font-family="'OpenSans'" font-size="36">breathing left</text>
	<text transform="matrix(1 0 0 1 1204 -1470)" display="inline" fill="#1D71B8" font-family="'OpenSans'" font-size="36">walking right</text>
	<text transform="matrix(1 0 0 1 1204 -1270)" display="inline" fill="#1D71B8" font-family="'OpenSans'" font-size="36">walking left</text>
	<text transform="matrix(1 0 0 1 1204 -1070)" display="inline" fill="#1D71B8" font-family="'OpenSans'" font-size="36">excited right</text>
	<text transform="matrix(1 0 0 1 1204 -870)" display="inline" fill="#1D71B8" font-family="'OpenSans'" font-size="36">excited left</text>
</g>
<polygon fill="#2FAC66" points="0,0 382,0 382,477.082 191,642 0,477.082 "/>
<path fill="#FFFFFF" d="M191,138L73.667,372.666h234.667L191,138z"/>
<path fill="#2FAC66" d="M191,206.232l-65.1,130.202h130.202L191,206.232z"/>
<rect x="23.372" y="225.515" transform="matrix(-0.4472 0.8944 -0.8944 -0.4472 496.5683 180.3651)" fill="#2FAC66" width="338.353" height="36.23"/>
</svg>
