<?xml version="1.0" encoding="utf-8"?>
<!-- Generator: Adobe Illustrator 15.1.0, SVG Export Plug-In . SVG Version: 6.00 Build 0)  -->
<!DOCTYPE svg PUBLIC "-//W3C//DTD SVG 1.1//EN" "http://www.w3.org/Graphics/SVG/1.1/DTD/svg11.dtd">
<svg version="1.1" xmlns="http://www.w3.org/2000/svg" xmlns:xlink="http://www.w3.org/1999/xlink" x="0px" y="0px" width="3200px"
	 height="1600px" viewBox="0 0 3200 1600" enable-background="new 0 0 3200 1600" xml:space="preserve">
<g id="Layer_1">
	<g>
		<g>
			<path fill="#EDEDED" d="M-1631.416-598.58c0,44-36,80-80,80h-613.258c-44,0-80-36-80-80v-1328.149c0-44,36-80,80-80h613.258
				c44,0,80,36,80,80V-598.58z"/>
			<path fill="none" stroke="#FFFFFF" stroke-miterlimit="10" d="M-1631.416-598.58c0,44-36,80-80,80h-613.258c-44,0-80-36-80-80
				v-1328.149c0-44,36-80,80-80h613.258c44,0,80,36,80,80V-598.58z"/>
		</g>
		<rect x="-2378.044" y="-1908.384" stroke="#FFFFFF" stroke-miterlimit="10" width="720" height="1280"/>
		<rect x="-2214.585" y="-1949.384" width="393.082" height="10"/>
	</g>
	<rect y="-2112" fill="#7FCAEF" width="3200" height="1087.385"/>
	<path fill="#706F6F" d="M2428.458-3726.965c11.242,0,20.355-9.113,20.355-20.355v-27.65l0,0
		c0-80.287-65.085-145.372-145.372-145.372c-60.272,0-111.976,36.681-134.009,88.937c-4.708-1.641-9.762-2.543-15.03-2.543
		c-18.931,0-35.17,11.519-42.093,27.93c-5.584-7.931-14.804-13.118-25.24-13.118c-10.199,0-19.238,4.951-24.856,12.578
		c-11.764-24.398-36.731-41.233-65.631-41.233c-40.218,0-72.821,32.603-72.821,72.821c0,40.218,32.603,72.821,72.821,72.821
		c21.821,0,41.387-9.611,54.733-24.816H2428.458z"/>
	<path fill="#EBF4EB" d="M998.627-1641.49h161.188v-10.625c0-7.248-5.876-13.125-13.125-13.125c-2.775,0-5.345,0.866-7.465,2.336
		c-1.637-2.602-4.526-4.336-7.827-4.336c-4.384,0-8.047,3.054-9.001,7.148c-1.549-1.482-3.644-2.398-5.958-2.398
		c-2.729,0-5.157,1.271-6.737,3.248c-2.509-5.736-8.227-9.748-14.888-9.748c-4.899,0-9.281,2.178-12.26,5.605
		c-0.212-14.453-11.986-26.105-26.49-26.105c-10.199,0-19.047,5.766-23.478,14.212c-3.475-3.808-8.462-6.212-14.022-6.212
		c-0.154,0-0.303,0.02-0.456,0.023c-2.876-18.702-19.037-33.023-38.544-33.023c-19.502,0-35.661,14.315-38.542,33.012
		c-0.153-0.002-0.305-0.012-0.458-0.012c-22.091,0-40,17.908-40,40s17.909,40,40,40c20.402,0,37.226-15.279,39.68-35.018
		c6.671-0.114,12.931-1.901,18.383-4.963V-1641.49z"/>
	<path fill="#FEFBE5" d="M1718.563-1658.948c0-6.443-5.224-11.667-11.667-11.667c-2.466,0-4.75,0.77-6.635,2.076
		c-1.711-10.257-10.623-18.076-21.365-18.076c-10.278,0-18.878,7.159-21.102,16.762c-6.19-6.471-14.903-10.508-24.565-10.508
		c-5.47,0-10.634,1.3-15.212,3.595c3.352-8.18,5.212-17.128,5.212-26.515c0-38.66-31.34-70-70-70
		c-37.444,0-68.022,29.4-69.907,66.376c-2.811-0.676-5.741-1.044-8.759-1.044c-20.619,0-37.333,16.715-37.333,37.334
		s16.715,37.334,37.333,37.334h127.277c5.125,12.284,17.247,20.92,31.389,20.92s26.265-8.636,31.389-20.92h53.944V-1658.948z"/>
	<path fill="#F8FAEB" d="M2327.846-1672.625c-7.018,0-13.206,3.522-16.915,8.889c-0.946-7.965-7.089-14.319-14.947-15.602
		c1.994-5.547,3.086-11.523,3.086-17.757c0-28.995-23.505-52.5-52.5-52.5c-22.478,0-41.646,14.13-49.133,33.988
		c-8.266-7.054-18.982-11.321-30.7-11.321c-13.798,0-26.213,5.907-34.865,15.326c-5.011-3.158-10.941-4.993-17.302-4.993
		c-13.589,0-25.225,8.344-30.078,20.185c-3.246-2.006-7.058-3.185-11.154-3.185c-11.746,0-21.268,9.522-21.268,21.269
		c0,11.745,9.522,21.268,21.268,21.268c6.223,0,11.803-2.689,15.693-6.949c5.951,7.556,15.175,12.413,25.539,12.413
		c4.37,0,8.536-0.868,12.342-2.433c8.42,13.089,23.104,21.766,39.825,21.766c11.725,0,22.446-4.271,30.714-11.333h95.619
		c5.832,0,11-2.786,14.29-7.085c0.716,10.703,9.602,19.169,20.486,19.169c11.354,0,20.557-9.204,20.557-20.557
		C2348.403-1663.421,2339.2-1672.625,2327.846-1672.625z"/>
	<path fill="#FEFBE5" d="M2905.82-1706.678c-7.844,0-14.999,2.941-20.431,7.776c-1.737-16.73-15.879-29.776-33.069-29.776
		c-0.944,0-1.875,0.049-2.799,0.126c1.291-2.069,2.049-4.507,2.049-7.126c0-3.937-1.695-7.468-4.382-9.936
		c2.558-0.96,4.382-3.421,4.382-6.314c0-2.051-0.917-3.884-2.361-5.122c1.474-1.903,2.361-4.284,2.361-6.878
		c0-6.213-5.037-11.25-11.25-11.25c-0.097,0-0.191,0.012-0.288,0.015c-1.08-2.647-3.676-4.515-6.712-4.515
		c-1.415,0-2.73,0.411-3.845,1.111c-0.952-10.159-9.497-18.111-19.905-18.111c-11.046,0-20,8.954-20,20
		c0,10.543,8.164,19.161,18.512,19.925c-0.322,1.308-0.512,2.668-0.512,4.075c0,3.775,1.246,7.251,3.327,10.072
		c-8.379,0.686-15.054,7.35-15.754,15.726c-0.428-0.085-0.87-0.132-1.323-0.132c-2.986,0-5.515,1.941-6.404,4.629
		c-1.79-1.283-3.976-2.045-6.346-2.045c-6.029,0-10.917,4.887-10.917,10.916c0,0.582,0.059,1.148,0.146,1.705
		c-0.985-0.072-1.976-0.121-2.979-0.121c-15.021,0-28.111,8.234-35.027,20.43c-7.476-6.863-17.442-11.055-28.39-11.055
		c-23.196,0-42,18.805-42,42s18.804,42,42,42c16.183,0,30.219-9.158,37.233-22.57c7.04,6.039,16.182,9.695,26.184,9.695
		c12.077,0,22.904-5.326,30.282-13.75h20.487c4.829,4.35,11.22,7,18.231,7s13.402-2.65,18.231-7h51.269
		c16.983,0,30.75-13.768,30.75-30.75S2922.803-1706.678,2905.82-1706.678z"/>
	<g>
		<circle fill="#F8FAEB" cx="577.32" cy="-1749.865" r="11.25"/>
		<circle fill="#F8FAEB" cx="617.57" cy="-1767.615" r="6.5"/>
		<circle fill="#F8FAEB" cx="599.57" cy="-1790.615" r="5"/>
		<path fill="#F8FAEB" d="M588.57-1699.115c-3.058,0-5.972,0.613-8.63,1.717c0.082-0.895,0.13-1.8,0.13-2.717
			c0-16.293-13.208-29.5-29.5-29.5c-1.692,0-3.348,0.15-4.962,0.424c-3.75-31.773-30.757-56.424-63.538-56.424
			c-35.346,0-64,28.654-64,64c0,2.67,0.183,5.295,0.5,7.878c-7.371-5.57-16.548-8.878-26.5-8.878
			c-23.209,0-42.208,17.974-43.868,40.76c-5.323-4.822-12.384-7.76-20.132-7.76c-6.708,0-12.902,2.203-17.898,5.924
			c1.864-4.783,2.898-9.98,2.898-15.424c0-23.473-19.028-42.5-42.5-42.5s-42.5,19.027-42.5,42.5s19.028,42.5,42.5,42.5
			c11.018,0,21.056-4.193,28.607-11.07c-0.716,2.568-1.107,5.273-1.107,8.07c0,16.568,13.432,30,30,30
			c13.918,0,25.62-9.48,29.008-22.334c8.039,10.532,20.719,17.334,34.992,17.334h156.5c13.827,0,25.267-10.205,27.206-23.494
			c3.633,2.516,8.04,3.994,12.794,3.994c12.427,0,22.5-10.074,22.5-22.5S600.997-1699.115,588.57-1699.115z"/>
	</g>
	<circle fill="#448942" cx="2789.82" cy="-1042.365" r="20.25"/>
	<circle fill="#448942" cx="2733.07" cy="-1038.865" r="12.75"/>
	<circle fill="#448942" cx="2003.737" cy="-1041.948" r="21.667"/>
	<circle fill="#448942" cx="2050.903" cy="-1027.781" r="19.5"/>
	<circle fill="#448942" cx="2136.57" cy="-1025.448" r="16.167"/>
	<circle fill="#448942" cx="1541.237" cy="-1057.782" r="34.833"/>
	<circle fill="#448942" cx="1637.237" cy="-1039.115" r="15.5"/>
	<circle fill="#448942" cx="1446.403" cy="-1045.615" r="18.333"/>
	<circle fill="#448942" cx="1098.57" cy="-1046.115" r="17.25"/>
	<circle fill="#448942" cx="1143.945" cy="-1029.99" r="9.625"/>
	<circle fill="#448942" cx="532.32" cy="-1040.865" r="16.25"/>
	<circle fill="#448942" cx="570.32" cy="-1039.865" r="14.75"/>
	<circle fill="#448942" cx="424.82" cy="-1047.365" r="15.25"/>
	<circle fill="#448942" cx="177.82" cy="-1030.365" r="14.25"/>
	<g>
		<rect y="-1024.615" fill="#5FB45D" width="3200" height="514.035"/>
		<circle fill="#5FB45D" cx="118.07" cy="-1023.615" r="36"/>
		<circle fill="#5FB45D" cx="155.07" cy="-1017.615" r="21"/>
		<circle fill="#5FB45D" cx="391.07" cy="-1011.615" r="48"/>
		<circle fill="#5FB45D" cx="480.57" cy="-1003.115" r="69.5"/>
		<circle fill="#5FB45D" cx="550.57" cy="-1017.115" r="25.5"/>
		<circle fill="#5FB45D" cx="589.57" cy="-1025.115" r="22.5"/>
		<circle fill="#5FB45D" cx="618.07" cy="-1020.615" r="11"/>
		<circle fill="#5FB45D" cx="1037.07" cy="-997.615" r="75"/>
		<circle fill="#5FB45D" cx="979.57" cy="-974.115" r="65.5"/>
		<circle fill="#5FB45D" cx="932.07" cy="-987.615" r="47"/>
		<circle fill="#5FB45D" cx="1115.57" cy="-1019.115" r="29.5"/>
		<circle fill="#5FB45D" cx="1158.07" cy="-1019.615" r="21"/>
		<circle fill="#5FB45D" cx="1490.57" cy="-1034.115" r="49.5"/>
		<circle fill="#5FB45D" cx="1582.82" cy="-1014.365" r="55.75"/>
		<circle fill="#5FB45D" cx="1426.57" cy="-1022.115" r="24.5"/>
		<circle fill="#5FB45D" cx="1653.07" cy="-1015.615" r="28"/>
		<circle fill="#5FB45D" cx="1946.32" cy="-1036.865" r="57.25"/>
		<circle fill="#5FB45D" cx="2022.403" cy="-1029.615" r="27"/>
		<circle fill="#5FB45D" cx="2069.736" cy="-1014.281" r="25"/>
		<circle fill="#5FB45D" cx="1885.07" cy="-1025.615" r="43"/>
		<circle fill="#5FB45D" cx="2108.403" cy="-1019.615" r="24.333"/>
		<circle fill="#5FB45D" cx="2150.07" cy="-976.615" r="56"/>
		<circle fill="#5FB45D" cx="2732.07" cy="-1013.949" r="28"/>
		<circle fill="#5FB45D" cx="2825.736" cy="-1035.615" r="30"/>
		<circle fill="#5FB45D" cx="2786.403" cy="-1021.948" r="27"/>
		<circle fill="#5FB45D" cx="2756.07" cy="-1034.949" r="23"/>
		<circle fill="#5FB45D" cx="2862.57" cy="-1021.781" r="15.5"/>
	</g>
	<g>
		<g>
			<path fill="#EDEDED" d="M-1215.258-2060.149c-44,0-80,36-80,80V-652c0,44,36,80,80,80H-602c44,0,80-36,80-80v-1328.149
				c0-44-36-80-80-80H-1215.258z M-548.629-761.804c0,44-36,80-80,80h-560c-44,0-80-36-80-80v-1120c0-44,36-80,80-80h560
				c44,0,80,36,80,80V-761.804z"/>
			<path fill="none" stroke="#FFFFFF" stroke-miterlimit="10" d="M-1215.258-2060.149c-44,0-80,36-80,80V-652c0,44,36,80,80,80H-602
				c44,0,80-36,80-80v-1328.149c0-44-36-80-80-80H-1215.258z M-548.629-761.804c0,44-36,80-80,80h-560c-44,0-80-36-80-80v-1120
				c0-44,36-80,80-80h560c44,0,80,36,80,80V-761.804z"/>
		</g>
		<rect x="-1105.17" y="-2002.804" width="393.082" height="10"/>
	</g>
	<g>
		<rect fill="#120E18" width="3200" height="1087.385"/>
		<circle fill="#46AC34" cx="2789.82" cy="1069.635" r="20.25"/>
		<circle fill="#46AC34" cx="2733.07" cy="1073.135" r="12.75"/>
		<circle fill="#46AC34" cx="2003.737" cy="1070.052" r="21.667"/>
		<circle fill="#46AC34" cx="2050.903" cy="1084.219" r="19.5"/>
		<circle fill="#46AC34" cx="2136.57" cy="1086.552" r="16.167"/>
		<circle fill="#46AC34" cx="1541.237" cy="1054.218" r="34.833"/>
		<circle fill="#46AC34" cx="1637.237" cy="1072.885" r="15.5"/>
		<circle fill="#46AC34" cx="1446.403" cy="1066.385" r="18.333"/>
		<circle fill="#46AC34" cx="1098.57" cy="1065.885" r="17.25"/>
		<circle fill="#46AC34" cx="1143.945" cy="1082.01" r="9.625"/>
		<circle fill="#46AC34" cx="532.32" cy="1071.135" r="16.25"/>
		<circle fill="#46AC34" cx="570.32" cy="1072.135" r="14.75"/>
		<circle fill="#46AC34" cx="424.82" cy="1064.635" r="15.25"/>
		<circle fill="#46AC34" cx="177.82" cy="1081.635" r="14.25"/>
		<g>
			<rect y="1087.385" fill="#49845E" width="3200" height="514.035"/>
			<circle fill="#49845E" cx="118.07" cy="1088.385" r="36"/>
			<circle fill="#49845E" cx="155.07" cy="1094.385" r="21"/>
			<circle fill="#49845E" cx="391.07" cy="1100.385" r="48"/>
			<circle fill="#49845E" cx="480.57" cy="1108.885" r="69.5"/>
			<circle fill="#49845E" cx="550.57" cy="1094.885" r="25.5"/>
			<circle fill="#49845E" cx="589.57" cy="1086.885" r="22.5"/>
			<circle fill="#49845E" cx="618.07" cy="1091.385" r="11"/>
			<circle fill="#49845E" cx="1037.07" cy="1114.385" r="75"/>
			<circle fill="#49845E" cx="979.57" cy="1137.885" r="65.5"/>
			<circle fill="#49845E" cx="932.07" cy="1124.385" r="47"/>
			<circle fill="#49845E" cx="1115.57" cy="1092.885" r="29.5"/>
			<circle fill="#49845E" cx="1158.07" cy="1092.385" r="21"/>
			<circle fill="#49845E" cx="1490.57" cy="1077.885" r="49.5"/>
			<circle fill="#49845E" cx="1582.82" cy="1097.635" r="55.75"/>
			<circle fill="#49845E" cx="1426.57" cy="1089.885" r="24.5"/>
			<circle fill="#49845E" cx="1653.07" cy="1096.385" r="28"/>
			<circle fill="#49845E" cx="1946.32" cy="1075.135" r="57.25"/>
			<circle fill="#49845E" cx="2022.403" cy="1082.385" r="27"/>
			<circle fill="#49845E" cx="2069.736" cy="1097.719" r="25"/>
			<circle fill="#49845E" cx="1885.07" cy="1086.385" r="43"/>
			<circle fill="#49845E" cx="2108.403" cy="1092.385" r="24.333"/>
			<circle fill="#49845E" cx="2150.07" cy="1135.385" r="56"/>
			<circle fill="#49845E" cx="2732.07" cy="1098.051" r="28"/>
			<circle fill="#49845E" cx="2825.736" cy="1076.385" r="30"/>
			<circle fill="#49845E" cx="2786.403" cy="1090.052" r="27"/>
			<circle fill="#49845E" cx="2756.07" cy="1077.051" r="23"/>
			<circle fill="#49845E" cx="2862.57" cy="1090.219" r="15.5"/>
		</g>
		<rect x="352.07" y="455.385" fill="#F8FAEB" width="14" height="14"/>
		<rect x="378.07" y="435.385" fill="#F8FAEB" width="14" height="14"/>
		<rect x="400.736" y="406.718" fill="#F8FAEB" width="14" height="14"/>
		<rect x="460.736" y="394.385" fill="#F8FAEB" width="14" height="14"/>
		<rect x="533.736" y="453.051" fill="#F8FAEB" width="14" height="14"/>
		<rect x="560.403" y="372.718" fill="#F8FAEB" width="14" height="14"/>
		<rect x="528.07" y="402.051" fill="#F8FAEB" width="14" height="14"/>
		<rect x="493.403" y="345.051" fill="#F8FAEB" width="14" height="14"/>
		<rect x="631.736" y="565.052" fill="#F8FAEB" width="14" height="14"/>
		<rect x="660.403" y="481.718" fill="#F8FAEB" width="14" height="14"/>
		<rect x="558.403" y="497.718" fill="#F8FAEB" width="14" height="14"/>
		<rect x="634.403" y="403.718" fill="#F8FAEB" width="14" height="14"/>
		<rect x="627.07" y="457.052" fill="#F8FAEB" width="14" height="14"/>
		<rect x="571.07" y="453.718" fill="#F8FAEB" width="14" height="14"/>
		<rect x="593.736" y="393.052" fill="#F8FAEB" width="14" height="14"/>
		<rect x="198.921" y="353.219" fill="#F8FAEB" width="14" height="14"/>
		<rect x="298.921" y="462.219" fill="#F8FAEB" width="14" height="14"/>
		<rect x="272.921" y="384.219" fill="#F8FAEB" width="14" height="14"/>
		<rect x="265.588" y="437.553" fill="#F8FAEB" width="14" height="14"/>
		<rect x="209.588" y="434.219" fill="#F8FAEB" width="14" height="14"/>
		<rect x="232.254" y="373.553" fill="#F8FAEB" width="14" height="14"/>
		<rect x="715.736" y="338.385" fill="#F8FAEB" width="14" height="14"/>
		<rect x="763.07" y="435.718" fill="#F8FAEB" width="14" height="14"/>
		<rect x="703.07" y="433.052" fill="#F8FAEB" width="14" height="14"/>
		<rect x="727.07" y="395.718" fill="#F8FAEB" width="14" height="14"/>
		<rect x="795.07" y="379.052" fill="#F8FAEB" width="14" height="14"/>
		<rect x="823.07" y="435.052" fill="#F8FAEB" width="14" height="14"/>
		<rect x="801.07" y="492.385" fill="#F8FAEB" width="14" height="14"/>
		<rect x="716.403" y="513.718" fill="#F8FAEB" width="14" height="14"/>
		<rect x="791.07" y="572.385" fill="#F8FAEB" width="14" height="14"/>
		<rect x="855.736" y="535.052" fill="#F8FAEB" width="14" height="14"/>
		<rect x="887.07" y="489.718" fill="#F8FAEB" width="14" height="14"/>
		<rect x="919.07" y="415.052" fill="#F8FAEB" width="14" height="14"/>
		<rect x="994.07" y="451.385" fill="#F8FAEB" width="14" height="14"/>
		<rect x="1040.07" y="425.385" fill="#F8FAEB" width="14" height="14"/>
		<rect x="1054.07" y="492.385" fill="#F8FAEB" width="14" height="14"/>
		<rect x="961.07" y="517.385" fill="#F8FAEB" width="14" height="14"/>
		<rect x="946.07" y="475.385" fill="#F8FAEB" width="14" height="14"/>
		<rect x="1094.07" y="493.385" fill="#F8FAEB" width="14" height="14"/>
		<rect x="1153.07" y="436.385" fill="#F8FAEB" width="14" height="14"/>
		<rect x="1156.07" y="478.385" fill="#F8FAEB" width="14" height="14"/>
		<rect x="929.07" y="361.718" fill="#F8FAEB" width="14" height="14"/>
		<rect x="59.816" y="629.242" fill="#F8FAEB" width="14" height="14"/>
		<rect x="91.816" y="554.576" fill="#F8FAEB" width="14" height="14"/>
		<rect x="166.816" y="590.909" fill="#F8FAEB" width="14" height="14"/>
		<rect x="212.816" y="564.909" fill="#F8FAEB" width="14" height="14"/>
		<rect x="226.816" y="631.909" fill="#F8FAEB" width="14" height="14"/>
		<rect x="133.816" y="656.909" fill="#F8FAEB" width="14" height="14"/>
		<rect x="118.816" y="614.909" fill="#F8FAEB" width="14" height="14"/>
		<rect x="101.816" y="501.242" fill="#F8FAEB" width="14" height="14"/>
		<rect x="929.736" y="283.718" fill="#F8FAEB" width="14" height="14"/>
		<rect x="861.736" y="241.052" fill="#F8FAEB" width="14" height="14"/>
		<rect x="859.07" y="306.385" fill="#F8FAEB" width="14" height="14"/>
		<rect x="433.799" y="443.921" fill="#F8FAEB" width="14" height="14"/>
		<rect x="2190.07" y="455.385" fill="#F8FAEB" width="14" height="14"/>
		<rect x="2216.07" y="435.385" fill="#F8FAEB" width="14" height="14"/>
		<rect x="2238.736" y="406.718" fill="#F8FAEB" width="14" height="14"/>
		<rect x="2298.736" y="394.385" fill="#F8FAEB" width="14" height="14"/>
		<rect x="2371.736" y="453.051" fill="#F8FAEB" width="14" height="14"/>
		<rect x="2398.403" y="372.718" fill="#F8FAEB" width="14" height="14"/>
		<rect x="2366.07" y="402.051" fill="#F8FAEB" width="14" height="14"/>
		<rect x="2331.403" y="345.051" fill="#F8FAEB" width="14" height="14"/>
		<rect x="2469.736" y="565.052" fill="#F8FAEB" width="14" height="14"/>
		<rect x="2498.403" y="481.718" fill="#F8FAEB" width="14" height="14"/>
		<rect x="2396.403" y="497.718" fill="#F8FAEB" width="14" height="14"/>
		<rect x="2472.403" y="403.718" fill="#F8FAEB" width="14" height="14"/>
		<rect x="2465.07" y="457.052" fill="#F8FAEB" width="14" height="14"/>
		<rect x="2409.07" y="453.718" fill="#F8FAEB" width="14" height="14"/>
		<rect x="2431.736" y="393.052" fill="#F8FAEB" width="14" height="14"/>
		<rect x="2553.736" y="338.385" fill="#F8FAEB" width="14" height="14"/>
		<rect x="2601.07" y="435.718" fill="#F8FAEB" width="14" height="14"/>
		<rect x="2541.07" y="433.052" fill="#F8FAEB" width="14" height="14"/>
		<rect x="2565.07" y="395.718" fill="#F8FAEB" width="14" height="14"/>
		<rect x="2633.07" y="379.052" fill="#F8FAEB" width="14" height="14"/>
		<rect x="2661.07" y="435.052" fill="#F8FAEB" width="14" height="14"/>
		<rect x="2639.07" y="492.385" fill="#F8FAEB" width="14" height="14"/>
		<rect x="2554.403" y="513.718" fill="#F8FAEB" width="14" height="14"/>
		<rect x="2629.07" y="572.385" fill="#F8FAEB" width="14" height="14"/>
		<rect x="2693.736" y="535.052" fill="#F8FAEB" width="14" height="14"/>
		<rect x="2725.07" y="489.718" fill="#F8FAEB" width="14" height="14"/>
		<rect x="2757.07" y="415.052" fill="#F8FAEB" width="14" height="14"/>
		<rect x="2832.07" y="451.385" fill="#F8FAEB" width="14" height="14"/>
		<rect x="2878.07" y="425.385" fill="#F8FAEB" width="14" height="14"/>
		<rect x="2892.07" y="492.385" fill="#F8FAEB" width="14" height="14"/>
		<rect x="2799.07" y="517.385" fill="#F8FAEB" width="14" height="14"/>
		<rect x="2784.07" y="475.385" fill="#F8FAEB" width="14" height="14"/>
		<rect x="2932.07" y="493.385" fill="#F8FAEB" width="14" height="14"/>
		<rect x="2991.07" y="436.385" fill="#F8FAEB" width="14" height="14"/>
		<rect x="2994.07" y="478.385" fill="#F8FAEB" width="14" height="14"/>
		<rect x="2767.07" y="361.718" fill="#F8FAEB" width="14" height="14"/>
		<rect x="2767.736" y="283.718" fill="#F8FAEB" width="14" height="14"/>
		<rect x="2699.736" y="241.052" fill="#F8FAEB" width="14" height="14"/>
		<rect x="2697.07" y="306.385" fill="#F8FAEB" width="14" height="14"/>
		<rect x="1875.736" y="535.718" fill="#F8FAEB" width="14" height="14"/>
		<rect x="1923.07" y="633.051" fill="#F8FAEB" width="14" height="14"/>
		<rect x="1863.07" y="630.385" fill="#F8FAEB" width="14" height="14"/>
		<rect x="1887.07" y="593.051" fill="#F8FAEB" width="14" height="14"/>
		<rect x="1955.07" y="576.385" fill="#F8FAEB" width="14" height="14"/>
		<rect x="1506.245" y="497.917" fill="#F8FAEB" width="14" height="14"/>
		<rect x="1560.242" y="464.919" fill="#F8FAEB" width="14" height="14"/>
		<rect x="1416.749" y="396.422" fill="#F8FAEB" width="14" height="14"/>
		<rect x="1318.254" y="477.418" fill="#F8FAEB" width="14" height="14"/>
		<rect x="1234.259" y="540.414" fill="#F8FAEB" width="14" height="14"/>
		<rect x="1447.748" y="682.407" fill="#F8FAEB" width="14" height="14"/>
		<rect x="1422.249" y="602.912" fill="#F8FAEB" width="14" height="14"/>
		<rect x="1219.759" y="632.91" fill="#F8FAEB" width="14" height="14"/>
		<rect x="973.771" y="694.407" fill="#F8FAEB" width="14" height="14"/>
		<rect x="532.793" y="794.902" fill="#F8FAEB" width="14" height="14"/>
		<rect x="411.299" y="593.912" fill="#F8FAEB" width="14" height="14"/>
		<rect x="579.291" y="656.909" fill="#F8FAEB" width="14" height="14"/>
		<rect x="537.293" y="248.93" fill="#F8FAEB" width="14" height="14"/>
		<rect x="750.283" y="107.937" fill="#F8FAEB" width="14" height="14"/>
		<rect x="1159.762" y="187.433" fill="#F8FAEB" width="14" height="14"/>
		<rect x="1465.747" y="97.437" fill="#F8FAEB" width="14" height="14"/>
		<rect x="1738.733" y="317.926" fill="#F8FAEB" width="14" height="14"/>
		<rect x="1978.721" y="170.934" fill="#F8FAEB" width="14" height="14"/>
		<rect x="2475.195" y="167.934" fill="#F8FAEB" width="14" height="14"/>
		<rect x="2637.187" y="811.401" fill="#F8FAEB" width="14" height="14"/>
		<rect x="3009.167" y="172.434" fill="#F8FAEB" width="14" height="14"/>
		<rect x="3094.662" y="434.92" fill="#F8FAEB" width="14" height="14"/>
		<rect x="3159.159" y="709.406" fill="#F8FAEB" width="14" height="14"/>
		<rect x="3030.166" y="740.904" fill="#F8FAEB" width="14" height="14"/>
		<rect x="3016.666" y="584.912" fill="#F8FAEB" width="14" height="14"/>
		<rect x="3126.161" y="556.414" fill="#F8FAEB" width="14" height="14"/>
		<rect x="3166.659" y="251.93" fill="#F8FAEB" width="14" height="14"/>
		<rect x="1525.744" y="242.93" fill="#F8FAEB" width="14" height="14"/>
		<rect x="1812.229" y="119.936" fill="#F8FAEB" width="14" height="14"/>
		<rect x="1269.756" y="393.422" fill="#F8FAEB" width="14" height="14"/>
		<rect x="1602.24" y="514.416" fill="#F8FAEB" width="14" height="14"/>
		<rect x="1644.238" y="454.419" fill="#F8FAEB" width="14" height="14"/>
		<rect x="1684.736" y="401.922" fill="#F8FAEB" width="14" height="14"/>
		<rect x="1722.234" y="445.42" fill="#F8FAEB" width="14" height="14"/>
		<rect x="1714.734" y="511.416" fill="#F8FAEB" width="14" height="14"/>
		<rect x="1654.737" y="508.416" fill="#F8FAEB" width="14" height="14"/>
		<rect x="1749.232" y="494.917" fill="#F8FAEB" width="14" height="14"/>
		<rect x="1770.231" y="440.92" fill="#F8FAEB" width="14" height="14"/>
		<rect x="1810.729" y="473.918" fill="#F8FAEB" width="14" height="14"/>
		<rect x="1780.731" y="584.912" fill="#F8FAEB" width="14" height="14"/>
		<rect x="1983.07" y="632.385" fill="#F8FAEB" width="14" height="14"/>
		<rect x="1961.07" y="689.718" fill="#F8FAEB" width="14" height="14"/>
		<rect x="1876.403" y="711.051" fill="#F8FAEB" width="14" height="14"/>
		<rect x="2047.07" y="687.051" fill="#F8FAEB" width="14" height="14"/>
		<rect x="2079.07" y="612.385" fill="#F8FAEB" width="14" height="14"/>
		<rect x="2154.07" y="648.718" fill="#F8FAEB" width="14" height="14"/>
		<rect x="2121.07" y="714.718" fill="#F8FAEB" width="14" height="14"/>
		<rect x="2106.07" y="672.718" fill="#F8FAEB" width="14" height="14"/>
		<rect x="2089.07" y="559.051" fill="#F8FAEB" width="14" height="14"/>
		<rect x="2089.736" y="481.051" fill="#F8FAEB" width="14" height="14"/>
		<rect x="2021.736" y="438.385" fill="#F8FAEB" width="14" height="14"/>
		<rect x="2019.07" y="503.718" fill="#F8FAEB" width="14" height="14"/>
		<rect x="2271.799" y="443.921" fill="#F8FAEB" width="14" height="14"/>
		<rect x="2135.07" y="591.719" fill="#F8FAEB" width="14" height="14"/>
		<rect x="2161.07" y="571.719" fill="#F8FAEB" width="14" height="14"/>
		<rect x="2183.736" y="543.052" fill="#F8FAEB" width="14" height="14"/>
		<rect x="2243.736" y="530.719" fill="#F8FAEB" width="14" height="14"/>
		<rect x="2316.736" y="589.385" fill="#F8FAEB" width="14" height="14"/>
		<rect x="2343.403" y="509.052" fill="#F8FAEB" width="14" height="14"/>
		<rect x="2311.07" y="538.385" fill="#F8FAEB" width="14" height="14"/>
		<rect x="2276.403" y="481.385" fill="#F8FAEB" width="14" height="14"/>
		<rect x="2414.736" y="701.386" fill="#F8FAEB" width="14" height="14"/>
		<rect x="2443.403" y="618.052" fill="#F8FAEB" width="14" height="14"/>
		<rect x="2341.403" y="634.052" fill="#F8FAEB" width="14" height="14"/>
		<rect x="2417.403" y="540.052" fill="#F8FAEB" width="14" height="14"/>
		<rect x="2410.07" y="593.386" fill="#F8FAEB" width="14" height="14"/>
		<rect x="2354.07" y="590.052" fill="#F8FAEB" width="14" height="14"/>
		<rect x="2376.736" y="529.386" fill="#F8FAEB" width="14" height="14"/>
		<rect x="2216.799" y="580.255" fill="#F8FAEB" width="14" height="14"/>
		<rect x="1888.736" y="383.052" fill="#F8FAEB" width="14" height="14"/>
		<rect x="1914.736" y="363.052" fill="#F8FAEB" width="14" height="14"/>
		<rect x="1937.403" y="334.385" fill="#F8FAEB" width="14" height="14"/>
		<rect x="1946.736" y="535.719" fill="#F8FAEB" width="14" height="14"/>
		<rect x="2019.736" y="594.385" fill="#F8FAEB" width="14" height="14"/>
		<rect x="2097.07" y="300.385" fill="#F8FAEB" width="14" height="14"/>
		<rect x="2014.07" y="543.385" fill="#F8FAEB" width="14" height="14"/>
		<rect x="1979.403" y="486.385" fill="#F8FAEB" width="14" height="14"/>
		<rect x="2168.403" y="492.719" fill="#F8FAEB" width="14" height="14"/>
		<rect x="2197.07" y="409.385" fill="#F8FAEB" width="14" height="14"/>
		<rect x="2095.07" y="425.385" fill="#F8FAEB" width="14" height="14"/>
		<rect x="2171.07" y="331.385" fill="#F8FAEB" width="14" height="14"/>
		<rect x="2163.736" y="384.719" fill="#F8FAEB" width="14" height="14"/>
		<rect x="2107.736" y="381.385" fill="#F8FAEB" width="14" height="14"/>
		<rect x="2130.403" y="320.719" fill="#F8FAEB" width="14" height="14"/>
		<rect x="1919.799" y="585.255" fill="#F8FAEB" width="14" height="14"/>
	</g>
	<g>
		<g>
			<path fill="#EDEDED" d="M-1316,83.852c-44,0-80,36-80,80V1492c0,44,36,80,80,80h613.257c44,0,80-36,80-80V163.852
				c0-44-36-80-80-80H-1316z M-649.372,1382.196c0,44-36,80-80,80h-560c-44,0-80-36-80-80v-1120c0-44,36-80,80-80h560
				c44,0,80,36,80,80V1382.196z"/>
			<path fill="none" stroke="#FFFFFF" stroke-miterlimit="10" d="M-1316,83.852c-44,0-80,36-80,80V1492c0,44,36,80,80,80h613.257
				c44,0,80-36,80-80V163.852c0-44-36-80-80-80H-1316z M-649.372,1382.196c0,44-36,80-80,80h-560c-44,0-80-36-80-80v-1120
				c0-44,36-80,80-80h560c44,0,80,36,80,80V1382.196z"/>
		</g>
		<rect x="-1205.912" y="141.196" width="393.082" height="10"/>
	</g>
</g>
<g id="sprite_sheet_layout">
</g>
<g id="character_sprite_sheet">
</g>
<g id="character_guides">
</g>
</svg>
