<?xml version="1.0" encoding="utf-8"?>
<!-- Generator: Adobe Illustrator 15.1.0, SVG Export Plug-In . SVG Version: 6.00 Build 0)  -->
<!DOCTYPE svg PUBLIC "-//W3C//DTD SVG 1.1//EN" "http://www.w3.org/Graphics/SVG/1.1/DTD/svg11.dtd">
<svg version="1.1" xmlns="http://www.w3.org/2000/svg" xmlns:xlink="http://www.w3.org/1999/xlink" x="0px" y="0px" width="3200px"
	 height="1600px" viewBox="0 0 3200 1600" enable-background="new 0 0 3200 1600" xml:space="preserve">
<g id="Layer_1">
	<g>
		<g>
			<path fill="#EDEDED" d="M-1631.416,1513.42c0,44-36,80-80,80h-613.258c-44,0-80-36-80-80V185.271c0-44,36-80,80-80h613.258
				c44,0,80,36,80,80V1513.42z"/>
			<path fill="none" stroke="#FFFFFF" stroke-miterlimit="10" d="M-1631.416,1513.42c0,44-36,80-80,80h-613.258c-44,0-80-36-80-80
				V185.271c0-44,36-80,80-80h613.258c44,0,80,36,80,80V1513.42z"/>
		</g>
		<rect x="-2378.044" y="203.617" stroke="#FFFFFF" stroke-miterlimit="10" width="720" height="1280"/>
		<rect x="-2214.585" y="162.617" width="393.082" height="10"/>
	</g>
	<rect fill="#7FCAEF" width="3200" height="1087.385"/>
	<path fill="#706F6F" d="M2428.458-1614.965c11.242,0,20.355-9.113,20.355-20.355v-27.65l0,0
		c0-80.287-65.085-145.372-145.372-145.372c-60.272,0-111.976,36.681-134.009,88.937c-4.708-1.641-9.762-2.543-15.03-2.543
		c-18.931,0-35.17,11.519-42.093,27.93c-5.584-7.931-14.804-13.118-25.24-13.118c-10.199,0-19.238,4.951-24.856,12.578
		c-11.764-24.398-36.731-41.233-65.631-41.233c-40.218,0-72.821,32.603-72.821,72.821c0,40.218,32.603,72.821,72.821,72.821
		c21.821,0,41.387-9.611,54.733-24.816H2428.458z"/>
	<path fill="#EBF4EB" d="M998.627,470.51h161.188v-10.625c0-7.248-5.876-13.125-13.125-13.125c-2.775,0-5.345,0.866-7.465,2.336
		c-1.637-2.602-4.526-4.336-7.827-4.336c-4.384,0-8.047,3.054-9.001,7.148c-1.549-1.482-3.644-2.398-5.958-2.398
		c-2.729,0-5.157,1.271-6.737,3.248c-2.509-5.736-8.227-9.748-14.888-9.748c-4.899,0-9.281,2.178-12.26,5.605
		c-0.212-14.453-11.986-26.105-26.49-26.105c-10.199,0-19.047,5.766-23.478,14.212c-3.475-3.808-8.462-6.212-14.022-6.212
		c-0.154,0-0.303,0.02-0.456,0.023c-2.876-18.702-19.037-33.023-38.544-33.023c-19.502,0-35.661,14.315-38.542,33.012
		c-0.153-0.002-0.305-0.012-0.458-0.012c-22.091,0-40,17.908-40,40s17.909,40,40,40c20.402,0,37.226-15.279,39.68-35.018
		c6.671-0.114,12.931-1.901,18.383-4.963V470.51z"/>
	<path fill="#FEFBE5" d="M1718.563,453.052c0-6.443-5.224-11.667-11.667-11.667c-2.466,0-4.75,0.77-6.635,2.076
		c-1.711-10.257-10.623-18.076-21.365-18.076c-10.278,0-18.878,7.159-21.102,16.762c-6.19-6.471-14.903-10.508-24.565-10.508
		c-5.47,0-10.634,1.3-15.212,3.595c3.352-8.18,5.212-17.128,5.212-26.515c0-38.66-31.34-70-70-70
		c-37.444,0-68.022,29.4-69.907,66.376c-2.811-0.676-5.741-1.044-8.759-1.044c-20.619,0-37.333,16.715-37.333,37.334
		s16.715,37.334,37.333,37.334h127.277c5.125,12.284,17.247,20.92,31.389,20.92s26.265-8.636,31.389-20.92h53.944V453.052z"/>
	<path fill="#F8FAEB" d="M2327.846,439.375c-7.018,0-13.206,3.522-16.915,8.889c-0.946-7.965-7.089-14.319-14.947-15.602
		c1.994-5.547,3.086-11.523,3.086-17.757c0-28.995-23.505-52.5-52.5-52.5c-22.478,0-41.646,14.13-49.133,33.988
		c-8.266-7.054-18.982-11.321-30.7-11.321c-13.798,0-26.213,5.907-34.865,15.326c-5.011-3.158-10.941-4.993-17.302-4.993
		c-13.589,0-25.225,8.344-30.078,20.185c-3.246-2.006-7.058-3.185-11.154-3.185c-11.746,0-21.268,9.522-21.268,21.269
		c0,11.745,9.522,21.268,21.268,21.268c6.223,0,11.803-2.689,15.693-6.949c5.951,7.556,15.175,12.413,25.539,12.413
		c4.37,0,8.536-0.868,12.342-2.433c8.42,13.089,23.104,21.766,39.825,21.766c11.725,0,22.446-4.271,30.714-11.333h95.619
		c5.832,0,11-2.786,14.29-7.085c0.716,10.703,9.602,19.169,20.486,19.169c11.354,0,20.557-9.204,20.557-20.557
		C2348.403,448.58,2339.2,439.375,2327.846,439.375z"/>
	<path fill="#FEFBE5" d="M2905.82,405.323c-7.844,0-14.999,2.941-20.431,7.776c-1.737-16.73-15.879-29.776-33.069-29.776
		c-0.944,0-1.875,0.049-2.799,0.126c1.291-2.069,2.049-4.507,2.049-7.126c0-3.937-1.695-7.468-4.382-9.936
		c2.558-0.96,4.382-3.421,4.382-6.314c0-2.051-0.917-3.884-2.361-5.122c1.474-1.903,2.361-4.284,2.361-6.878
		c0-6.213-5.037-11.25-11.25-11.25c-0.097,0-0.191,0.012-0.288,0.015c-1.08-2.647-3.676-4.515-6.712-4.515
		c-1.415,0-2.73,0.411-3.845,1.111c-0.952-10.159-9.497-18.111-19.905-18.111c-11.046,0-20,8.954-20,20
		c0,10.543,8.164,19.161,18.512,19.925c-0.322,1.308-0.512,2.668-0.512,4.075c0,3.775,1.246,7.251,3.327,10.072
		c-8.379,0.686-15.054,7.35-15.754,15.726c-0.428-0.085-0.87-0.132-1.323-0.132c-2.986,0-5.515,1.941-6.404,4.629
		c-1.79-1.283-3.976-2.045-6.346-2.045c-6.029,0-10.917,4.887-10.917,10.916c0,0.582,0.059,1.148,0.146,1.705
		c-0.985-0.072-1.976-0.121-2.979-0.121c-15.021,0-28.111,8.234-35.027,20.43c-7.476-6.863-17.442-11.055-28.39-11.055
		c-23.196,0-42,18.805-42,42s18.804,42,42,42c16.183,0,30.219-9.158,37.233-22.57c7.04,6.039,16.182,9.695,26.184,9.695
		c12.077,0,22.904-5.326,30.282-13.75h20.487c4.829,4.35,11.22,7,18.231,7s13.402-2.65,18.231-7h51.269
		c16.983,0,30.75-13.768,30.75-30.75S2922.803,405.323,2905.82,405.323z"/>
	<g>
		<circle fill="#F8FAEB" cx="577.32" cy="362.135" r="11.25"/>
		<circle fill="#F8FAEB" cx="617.57" cy="344.385" r="6.5"/>
		<circle fill="#F8FAEB" cx="599.57" cy="321.385" r="5"/>
		<path fill="#F8FAEB" d="M588.57,412.885c-3.058,0-5.972,0.613-8.63,1.717c0.082-0.895,0.13-1.8,0.13-2.717
			c0-16.293-13.208-29.5-29.5-29.5c-1.692,0-3.348,0.15-4.962,0.424c-3.75-31.773-30.757-56.424-63.538-56.424
			c-35.346,0-64,28.654-64,64c0,2.67,0.183,5.295,0.5,7.878c-7.371-5.57-16.548-8.878-26.5-8.878
			c-23.209,0-42.208,17.974-43.868,40.76c-5.323-4.822-12.384-7.76-20.132-7.76c-6.708,0-12.902,2.203-17.898,5.924
			c1.864-4.783,2.898-9.98,2.898-15.424c0-23.473-19.028-42.5-42.5-42.5s-42.5,19.027-42.5,42.5s19.028,42.5,42.5,42.5
			c11.018,0,21.056-4.193,28.607-11.07c-0.716,2.568-1.107,5.273-1.107,8.07c0,16.568,13.432,30,30,30
			c13.918,0,25.62-9.48,29.008-22.334c8.039,10.532,20.719,17.334,34.992,17.334h156.5c13.827,0,25.267-10.205,27.206-23.494
			c3.633,2.516,8.04,3.994,12.794,3.994c12.427,0,22.5-10.074,22.5-22.5S600.997,412.885,588.57,412.885z"/>
	</g>
	<circle fill="#448942" cx="2789.82" cy="1069.635" r="20.25"/>
	<circle fill="#448942" cx="2733.07" cy="1073.135" r="12.75"/>
	<circle fill="#448942" cx="2003.737" cy="1070.052" r="21.667"/>
	<circle fill="#448942" cx="2050.903" cy="1084.219" r="19.5"/>
	<circle fill="#448942" cx="2136.57" cy="1086.552" r="16.167"/>
	<circle fill="#448942" cx="1541.237" cy="1054.218" r="34.833"/>
	<circle fill="#448942" cx="1637.237" cy="1072.885" r="15.5"/>
	<circle fill="#448942" cx="1446.403" cy="1066.385" r="18.333"/>
	<circle fill="#448942" cx="1098.57" cy="1065.885" r="17.25"/>
	<circle fill="#448942" cx="1143.945" cy="1082.01" r="9.625"/>
	<circle fill="#448942" cx="532.32" cy="1071.135" r="16.25"/>
	<circle fill="#448942" cx="570.32" cy="1072.135" r="14.75"/>
	<circle fill="#448942" cx="424.82" cy="1064.635" r="15.25"/>
	<circle fill="#448942" cx="177.82" cy="1081.635" r="14.25"/>
	<g>
		<rect y="1087.385" fill="#5FB45D" width="3200" height="514.035"/>
		<circle fill="#5FB45D" cx="118.07" cy="1088.385" r="36"/>
		<circle fill="#5FB45D" cx="155.07" cy="1094.385" r="21"/>
		<circle fill="#5FB45D" cx="391.07" cy="1100.385" r="48"/>
		<circle fill="#5FB45D" cx="480.57" cy="1108.885" r="69.5"/>
		<circle fill="#5FB45D" cx="550.57" cy="1094.885" r="25.5"/>
		<circle fill="#5FB45D" cx="589.57" cy="1086.885" r="22.5"/>
		<circle fill="#5FB45D" cx="618.07" cy="1091.385" r="11"/>
		<circle fill="#5FB45D" cx="1037.07" cy="1114.385" r="75"/>
		<circle fill="#5FB45D" cx="979.57" cy="1137.885" r="65.5"/>
		<circle fill="#5FB45D" cx="932.07" cy="1124.385" r="47"/>
		<circle fill="#5FB45D" cx="1115.57" cy="1092.885" r="29.5"/>
		<circle fill="#5FB45D" cx="1158.07" cy="1092.385" r="21"/>
		<circle fill="#5FB45D" cx="1490.57" cy="1077.885" r="49.5"/>
		<circle fill="#5FB45D" cx="1582.82" cy="1097.635" r="55.75"/>
		<circle fill="#5FB45D" cx="1426.57" cy="1089.885" r="24.5"/>
		<circle fill="#5FB45D" cx="1653.07" cy="1096.385" r="28"/>
		<circle fill="#5FB45D" cx="1946.32" cy="1075.135" r="57.25"/>
		<circle fill="#5FB45D" cx="2022.403" cy="1082.385" r="27"/>
		<circle fill="#5FB45D" cx="2069.736" cy="1097.719" r="25"/>
		<circle fill="#5FB45D" cx="1885.07" cy="1086.385" r="43"/>
		<circle fill="#5FB45D" cx="2108.403" cy="1092.385" r="24.333"/>
		<circle fill="#5FB45D" cx="2150.07" cy="1135.385" r="56"/>
		<circle fill="#5FB45D" cx="2732.07" cy="1098.051" r="28"/>
		<circle fill="#5FB45D" cx="2825.736" cy="1076.385" r="30"/>
		<circle fill="#5FB45D" cx="2786.403" cy="1090.052" r="27"/>
		<circle fill="#5FB45D" cx="2756.07" cy="1077.051" r="23"/>
		<circle fill="#5FB45D" cx="2862.57" cy="1090.219" r="15.5"/>
	</g>
	<g>
		<g>
			<path fill="#EDEDED" d="M-1215.258,51.852c-44,0-80,36-80,80V1460c0,44,36,80,80,80H-602c44,0,80-36,80-80V131.852
				c0-44-36-80-80-80H-1215.258z M-548.629,1350.197c0,44-36,80-80,80h-560c-44,0-80-36-80-80v-1120c0-44,36-80,80-80h560
				c44,0,80,36,80,80V1350.197z"/>
			<path fill="none" stroke="#FFFFFF" stroke-miterlimit="10" d="M-1215.258,51.852c-44,0-80,36-80,80V1460c0,44,36,80,80,80H-602
				c44,0,80-36,80-80V131.852c0-44-36-80-80-80H-1215.258z M-548.629,1350.197c0,44-36,80-80,80h-560c-44,0-80-36-80-80v-1120
				c0-44,36-80,80-80h560c44,0,80,36,80,80V1350.197z"/>
		</g>
		<rect x="-1105.17" y="109.197" width="393.082" height="10"/>
	</g>
	<g>
		<rect y="2112" fill="#120E18" width="3200" height="1087.385"/>
		<circle fill="#46AC34" cx="2789.82" cy="3181.635" r="20.25"/>
		<circle fill="#46AC34" cx="2733.07" cy="3185.135" r="12.75"/>
		<circle fill="#46AC34" cx="2003.737" cy="3182.052" r="21.667"/>
		<circle fill="#46AC34" cx="2050.903" cy="3196.219" r="19.5"/>
		<circle fill="#46AC34" cx="2136.57" cy="3198.552" r="16.167"/>
		<circle fill="#46AC34" cx="1541.237" cy="3166.218" r="34.833"/>
		<circle fill="#46AC34" cx="1637.237" cy="3184.885" r="15.5"/>
		<circle fill="#46AC34" cx="1446.403" cy="3178.385" r="18.333"/>
		<circle fill="#46AC34" cx="1098.57" cy="3177.885" r="17.25"/>
		<circle fill="#46AC34" cx="1143.945" cy="3194.01" r="9.625"/>
		<circle fill="#46AC34" cx="532.32" cy="3183.135" r="16.25"/>
		<circle fill="#46AC34" cx="570.32" cy="3184.135" r="14.75"/>
		<circle fill="#46AC34" cx="424.82" cy="3176.635" r="15.25"/>
		<circle fill="#46AC34" cx="177.82" cy="3193.635" r="14.25"/>
		<g>
			<rect y="3199.385" fill="#49845E" width="3200" height="514.035"/>
			<circle fill="#49845E" cx="118.07" cy="3200.385" r="36"/>
			<circle fill="#49845E" cx="155.07" cy="3206.385" r="21"/>
			<circle fill="#49845E" cx="391.07" cy="3212.385" r="48"/>
			<circle fill="#49845E" cx="480.57" cy="3220.885" r="69.5"/>
			<circle fill="#49845E" cx="550.57" cy="3206.885" r="25.5"/>
			<circle fill="#49845E" cx="589.57" cy="3198.885" r="22.5"/>
			<circle fill="#49845E" cx="618.07" cy="3203.385" r="11"/>
			<circle fill="#49845E" cx="1037.07" cy="3226.385" r="75"/>
			<circle fill="#49845E" cx="979.57" cy="3249.885" r="65.5"/>
			<circle fill="#49845E" cx="932.07" cy="3236.385" r="47"/>
			<circle fill="#49845E" cx="1115.57" cy="3204.885" r="29.5"/>
			<circle fill="#49845E" cx="1158.07" cy="3204.385" r="21"/>
			<circle fill="#49845E" cx="1490.57" cy="3189.885" r="49.5"/>
			<circle fill="#49845E" cx="1582.82" cy="3209.635" r="55.75"/>
			<circle fill="#49845E" cx="1426.57" cy="3201.885" r="24.5"/>
			<circle fill="#49845E" cx="1653.07" cy="3208.385" r="28"/>
			<circle fill="#49845E" cx="1946.32" cy="3187.135" r="57.25"/>
			<circle fill="#49845E" cx="2022.403" cy="3194.385" r="27"/>
			<circle fill="#49845E" cx="2069.736" cy="3209.719" r="25"/>
			<circle fill="#49845E" cx="1885.07" cy="3198.385" r="43"/>
			<circle fill="#49845E" cx="2108.403" cy="3204.385" r="24.333"/>
			<circle fill="#49845E" cx="2150.07" cy="3247.385" r="56"/>
			<circle fill="#49845E" cx="2732.07" cy="3210.051" r="28"/>
			<circle fill="#49845E" cx="2825.736" cy="3188.385" r="30"/>
			<circle fill="#49845E" cx="2786.403" cy="3202.052" r="27"/>
			<circle fill="#49845E" cx="2756.07" cy="3189.051" r="23"/>
			<circle fill="#49845E" cx="2862.57" cy="3202.219" r="15.5"/>
		</g>
		<rect x="352.07" y="2567.385" fill="#F8FAEB" width="14" height="14"/>
		<rect x="378.07" y="2547.385" fill="#F8FAEB" width="14" height="14"/>
		<rect x="400.736" y="2518.718" fill="#F8FAEB" width="14" height="14"/>
		<rect x="460.736" y="2506.385" fill="#F8FAEB" width="14" height="14"/>
		<rect x="533.736" y="2565.051" fill="#F8FAEB" width="14" height="14"/>
		<rect x="560.403" y="2484.718" fill="#F8FAEB" width="14" height="14"/>
		<rect x="528.07" y="2514.051" fill="#F8FAEB" width="14" height="14"/>
		<rect x="493.403" y="2457.051" fill="#F8FAEB" width="14" height="14"/>
		<rect x="631.736" y="2677.052" fill="#F8FAEB" width="14" height="14"/>
		<rect x="660.403" y="2593.718" fill="#F8FAEB" width="14" height="14"/>
		<rect x="558.403" y="2609.718" fill="#F8FAEB" width="14" height="14"/>
		<rect x="634.403" y="2515.718" fill="#F8FAEB" width="14" height="14"/>
		<rect x="627.07" y="2569.052" fill="#F8FAEB" width="14" height="14"/>
		<rect x="571.07" y="2565.718" fill="#F8FAEB" width="14" height="14"/>
		<rect x="593.736" y="2505.052" fill="#F8FAEB" width="14" height="14"/>
		<rect x="198.921" y="2465.219" fill="#F8FAEB" width="14" height="14"/>
		<rect x="298.921" y="2574.219" fill="#F8FAEB" width="14" height="14"/>
		<rect x="272.921" y="2496.219" fill="#F8FAEB" width="14" height="14"/>
		<rect x="265.588" y="2549.553" fill="#F8FAEB" width="14" height="14"/>
		<rect x="209.588" y="2546.219" fill="#F8FAEB" width="14" height="14"/>
		<rect x="232.254" y="2485.553" fill="#F8FAEB" width="14" height="14"/>
		<rect x="715.736" y="2450.385" fill="#F8FAEB" width="14" height="14"/>
		<rect x="763.07" y="2547.718" fill="#F8FAEB" width="14" height="14"/>
		<rect x="703.07" y="2545.052" fill="#F8FAEB" width="14" height="14"/>
		<rect x="727.07" y="2507.718" fill="#F8FAEB" width="14" height="14"/>
		<rect x="795.07" y="2491.052" fill="#F8FAEB" width="14" height="14"/>
		<rect x="823.07" y="2547.052" fill="#F8FAEB" width="14" height="14"/>
		<rect x="801.07" y="2604.385" fill="#F8FAEB" width="14" height="14"/>
		<rect x="716.403" y="2625.718" fill="#F8FAEB" width="14" height="14"/>
		<rect x="791.07" y="2684.385" fill="#F8FAEB" width="14" height="14"/>
		<rect x="855.736" y="2647.052" fill="#F8FAEB" width="14" height="14"/>
		<rect x="887.07" y="2601.718" fill="#F8FAEB" width="14" height="14"/>
		<rect x="919.07" y="2527.052" fill="#F8FAEB" width="14" height="14"/>
		<rect x="994.07" y="2563.385" fill="#F8FAEB" width="14" height="14"/>
		<rect x="1040.07" y="2537.385" fill="#F8FAEB" width="14" height="14"/>
		<rect x="1054.07" y="2604.385" fill="#F8FAEB" width="14" height="14"/>
		<rect x="961.07" y="2629.385" fill="#F8FAEB" width="14" height="14"/>
		<rect x="946.07" y="2587.385" fill="#F8FAEB" width="14" height="14"/>
		<rect x="1094.07" y="2605.385" fill="#F8FAEB" width="14" height="14"/>
		<rect x="1153.07" y="2548.385" fill="#F8FAEB" width="14" height="14"/>
		<rect x="1156.07" y="2590.385" fill="#F8FAEB" width="14" height="14"/>
		<rect x="929.07" y="2473.718" fill="#F8FAEB" width="14" height="14"/>
		<rect x="59.816" y="2741.243" fill="#F8FAEB" width="14" height="14"/>
		<rect x="91.816" y="2666.577" fill="#F8FAEB" width="14" height="14"/>
		<rect x="166.816" y="2702.91" fill="#F8FAEB" width="14" height="14"/>
		<rect x="212.816" y="2676.91" fill="#F8FAEB" width="14" height="14"/>
		<rect x="226.816" y="2743.91" fill="#F8FAEB" width="14" height="14"/>
		<rect x="133.816" y="2768.91" fill="#F8FAEB" width="14" height="14"/>
		<rect x="118.816" y="2726.91" fill="#F8FAEB" width="14" height="14"/>
		<rect x="101.816" y="2613.243" fill="#F8FAEB" width="14" height="14"/>
		<rect x="929.736" y="2395.718" fill="#F8FAEB" width="14" height="14"/>
		<rect x="861.736" y="2353.052" fill="#F8FAEB" width="14" height="14"/>
		<rect x="859.07" y="2418.385" fill="#F8FAEB" width="14" height="14"/>
		<rect x="433.799" y="2555.921" fill="#F8FAEB" width="14" height="14"/>
		<rect x="2190.07" y="2567.385" fill="#F8FAEB" width="14" height="14"/>
		<rect x="2216.07" y="2547.385" fill="#F8FAEB" width="14" height="14"/>
		<rect x="2238.736" y="2518.718" fill="#F8FAEB" width="14" height="14"/>
		<rect x="2298.736" y="2506.385" fill="#F8FAEB" width="14" height="14"/>
		<rect x="2371.736" y="2565.051" fill="#F8FAEB" width="14" height="14"/>
		<rect x="2398.403" y="2484.718" fill="#F8FAEB" width="14" height="14"/>
		<rect x="2366.07" y="2514.051" fill="#F8FAEB" width="14" height="14"/>
		<rect x="2331.403" y="2457.051" fill="#F8FAEB" width="14" height="14"/>
		<rect x="2469.736" y="2677.052" fill="#F8FAEB" width="14" height="14"/>
		<rect x="2498.403" y="2593.718" fill="#F8FAEB" width="14" height="14"/>
		<rect x="2396.403" y="2609.718" fill="#F8FAEB" width="14" height="14"/>
		<rect x="2472.403" y="2515.718" fill="#F8FAEB" width="14" height="14"/>
		<rect x="2465.07" y="2569.052" fill="#F8FAEB" width="14" height="14"/>
		<rect x="2409.07" y="2565.718" fill="#F8FAEB" width="14" height="14"/>
		<rect x="2431.736" y="2505.052" fill="#F8FAEB" width="14" height="14"/>
		<rect x="2553.736" y="2450.385" fill="#F8FAEB" width="14" height="14"/>
		<rect x="2601.07" y="2547.718" fill="#F8FAEB" width="14" height="14"/>
		<rect x="2541.07" y="2545.052" fill="#F8FAEB" width="14" height="14"/>
		<rect x="2565.07" y="2507.718" fill="#F8FAEB" width="14" height="14"/>
		<rect x="2633.07" y="2491.052" fill="#F8FAEB" width="14" height="14"/>
		<rect x="2661.07" y="2547.052" fill="#F8FAEB" width="14" height="14"/>
		<rect x="2639.07" y="2604.385" fill="#F8FAEB" width="14" height="14"/>
		<rect x="2554.403" y="2625.718" fill="#F8FAEB" width="14" height="14"/>
		<rect x="2629.07" y="2684.385" fill="#F8FAEB" width="14" height="14"/>
		<rect x="2693.736" y="2647.052" fill="#F8FAEB" width="14" height="14"/>
		<rect x="2725.07" y="2601.718" fill="#F8FAEB" width="14" height="14"/>
		<rect x="2757.07" y="2527.052" fill="#F8FAEB" width="14" height="14"/>
		<rect x="2832.07" y="2563.385" fill="#F8FAEB" width="14" height="14"/>
		<rect x="2878.07" y="2537.385" fill="#F8FAEB" width="14" height="14"/>
		<rect x="2892.07" y="2604.385" fill="#F8FAEB" width="14" height="14"/>
		<rect x="2799.07" y="2629.385" fill="#F8FAEB" width="14" height="14"/>
		<rect x="2784.07" y="2587.385" fill="#F8FAEB" width="14" height="14"/>
		<rect x="2932.07" y="2605.385" fill="#F8FAEB" width="14" height="14"/>
		<rect x="2991.07" y="2548.385" fill="#F8FAEB" width="14" height="14"/>
		<rect x="2994.07" y="2590.385" fill="#F8FAEB" width="14" height="14"/>
		<rect x="2767.07" y="2473.718" fill="#F8FAEB" width="14" height="14"/>
		<rect x="2767.736" y="2395.718" fill="#F8FAEB" width="14" height="14"/>
		<rect x="2699.736" y="2353.052" fill="#F8FAEB" width="14" height="14"/>
		<rect x="2697.07" y="2418.385" fill="#F8FAEB" width="14" height="14"/>
		<rect x="1875.736" y="2647.718" fill="#F8FAEB" width="14" height="14"/>
		<rect x="1923.07" y="2745.051" fill="#F8FAEB" width="14" height="14"/>
		<rect x="1863.07" y="2742.385" fill="#F8FAEB" width="14" height="14"/>
		<rect x="1887.07" y="2705.051" fill="#F8FAEB" width="14" height="14"/>
		<rect x="1955.07" y="2688.385" fill="#F8FAEB" width="14" height="14"/>
		<rect x="1506.245" y="2609.917" fill="#F8FAEB" width="14" height="14"/>
		<rect x="1560.242" y="2576.919" fill="#F8FAEB" width="14" height="14"/>
		<rect x="1416.749" y="2508.422" fill="#F8FAEB" width="14" height="14"/>
		<rect x="1318.254" y="2589.418" fill="#F8FAEB" width="14" height="14"/>
		<rect x="1234.259" y="2652.415" fill="#F8FAEB" width="14" height="14"/>
		<rect x="1447.748" y="2794.408" fill="#F8FAEB" width="14" height="14"/>
		<rect x="1422.249" y="2714.913" fill="#F8FAEB" width="14" height="14"/>
		<rect x="1219.759" y="2744.911" fill="#F8FAEB" width="14" height="14"/>
		<rect x="973.771" y="2806.408" fill="#F8FAEB" width="14" height="14"/>
		<rect x="532.793" y="2906.903" fill="#F8FAEB" width="14" height="14"/>
		<rect x="411.299" y="2705.913" fill="#F8FAEB" width="14" height="14"/>
		<rect x="579.291" y="2768.91" fill="#F8FAEB" width="14" height="14"/>
		<rect x="537.293" y="2360.93" fill="#F8FAEB" width="14" height="14"/>
		<rect x="750.283" y="2219.937" fill="#F8FAEB" width="14" height="14"/>
		<rect x="1159.762" y="2299.433" fill="#F8FAEB" width="14" height="14"/>
		<rect x="1465.747" y="2209.437" fill="#F8FAEB" width="14" height="14"/>
		<rect x="1738.733" y="2429.926" fill="#F8FAEB" width="14" height="14"/>
		<rect x="1978.721" y="2282.934" fill="#F8FAEB" width="14" height="14"/>
		<rect x="2475.195" y="2279.934" fill="#F8FAEB" width="14" height="14"/>
		<rect x="2637.187" y="2923.402" fill="#F8FAEB" width="14" height="14"/>
		<rect x="3009.167" y="2284.434" fill="#F8FAEB" width="14" height="14"/>
		<rect x="3094.662" y="2546.92" fill="#F8FAEB" width="14" height="14"/>
		<rect x="3159.159" y="2821.407" fill="#F8FAEB" width="14" height="14"/>
		<rect x="3030.166" y="2852.905" fill="#F8FAEB" width="14" height="14"/>
		<rect x="3016.666" y="2696.913" fill="#F8FAEB" width="14" height="14"/>
		<rect x="3126.161" y="2668.415" fill="#F8FAEB" width="14" height="14"/>
		<rect x="3166.659" y="2363.93" fill="#F8FAEB" width="14" height="14"/>
		<rect x="1525.744" y="2354.93" fill="#F8FAEB" width="14" height="14"/>
		<rect x="1812.229" y="2231.936" fill="#F8FAEB" width="14" height="14"/>
		<rect x="1269.756" y="2505.422" fill="#F8FAEB" width="14" height="14"/>
		<rect x="1602.24" y="2626.417" fill="#F8FAEB" width="14" height="14"/>
		<rect x="1644.238" y="2566.419" fill="#F8FAEB" width="14" height="14"/>
		<rect x="1684.736" y="2513.922" fill="#F8FAEB" width="14" height="14"/>
		<rect x="1722.234" y="2557.42" fill="#F8FAEB" width="14" height="14"/>
		<rect x="1714.734" y="2623.417" fill="#F8FAEB" width="14" height="14"/>
		<rect x="1654.737" y="2620.417" fill="#F8FAEB" width="14" height="14"/>
		<rect x="1749.232" y="2606.917" fill="#F8FAEB" width="14" height="14"/>
		<rect x="1770.231" y="2552.92" fill="#F8FAEB" width="14" height="14"/>
		<rect x="1810.729" y="2585.918" fill="#F8FAEB" width="14" height="14"/>
		<rect x="1780.731" y="2696.913" fill="#F8FAEB" width="14" height="14"/>
		<rect x="1983.07" y="2744.385" fill="#F8FAEB" width="14" height="14"/>
		<rect x="1961.07" y="2801.718" fill="#F8FAEB" width="14" height="14"/>
		<rect x="1876.403" y="2823.051" fill="#F8FAEB" width="14" height="14"/>
		<rect x="2047.07" y="2799.051" fill="#F8FAEB" width="14" height="14"/>
		<rect x="2079.07" y="2724.385" fill="#F8FAEB" width="14" height="14"/>
		<rect x="2154.07" y="2760.718" fill="#F8FAEB" width="14" height="14"/>
		<rect x="2121.07" y="2826.718" fill="#F8FAEB" width="14" height="14"/>
		<rect x="2106.07" y="2784.718" fill="#F8FAEB" width="14" height="14"/>
		<rect x="2089.07" y="2671.051" fill="#F8FAEB" width="14" height="14"/>
		<rect x="2089.736" y="2593.051" fill="#F8FAEB" width="14" height="14"/>
		<rect x="2021.736" y="2550.385" fill="#F8FAEB" width="14" height="14"/>
		<rect x="2019.07" y="2615.718" fill="#F8FAEB" width="14" height="14"/>
		<rect x="2271.799" y="2555.921" fill="#F8FAEB" width="14" height="14"/>
		<rect x="2135.07" y="2703.719" fill="#F8FAEB" width="14" height="14"/>
		<rect x="2161.07" y="2683.719" fill="#F8FAEB" width="14" height="14"/>
		<rect x="2183.736" y="2655.052" fill="#F8FAEB" width="14" height="14"/>
		<rect x="2243.736" y="2642.719" fill="#F8FAEB" width="14" height="14"/>
		<rect x="2316.736" y="2701.385" fill="#F8FAEB" width="14" height="14"/>
		<rect x="2343.403" y="2621.052" fill="#F8FAEB" width="14" height="14"/>
		<rect x="2311.07" y="2650.385" fill="#F8FAEB" width="14" height="14"/>
		<rect x="2276.403" y="2593.385" fill="#F8FAEB" width="14" height="14"/>
		<rect x="2414.736" y="2813.386" fill="#F8FAEB" width="14" height="14"/>
		<rect x="2443.403" y="2730.052" fill="#F8FAEB" width="14" height="14"/>
		<rect x="2341.403" y="2746.052" fill="#F8FAEB" width="14" height="14"/>
		<rect x="2417.403" y="2652.052" fill="#F8FAEB" width="14" height="14"/>
		<rect x="2410.07" y="2705.386" fill="#F8FAEB" width="14" height="14"/>
		<rect x="2354.07" y="2702.052" fill="#F8FAEB" width="14" height="14"/>
		<rect x="2376.736" y="2641.386" fill="#F8FAEB" width="14" height="14"/>
		<rect x="2216.799" y="2692.255" fill="#F8FAEB" width="14" height="14"/>
		<rect x="1888.736" y="2495.052" fill="#F8FAEB" width="14" height="14"/>
		<rect x="1914.736" y="2475.052" fill="#F8FAEB" width="14" height="14"/>
		<rect x="1937.403" y="2446.385" fill="#F8FAEB" width="14" height="14"/>
		<rect x="1946.736" y="2647.719" fill="#F8FAEB" width="14" height="14"/>
		<rect x="2019.736" y="2706.385" fill="#F8FAEB" width="14" height="14"/>
		<rect x="2097.07" y="2412.385" fill="#F8FAEB" width="14" height="14"/>
		<rect x="2014.07" y="2655.385" fill="#F8FAEB" width="14" height="14"/>
		<rect x="1979.403" y="2598.385" fill="#F8FAEB" width="14" height="14"/>
		<rect x="2168.403" y="2604.719" fill="#F8FAEB" width="14" height="14"/>
		<rect x="2197.07" y="2521.385" fill="#F8FAEB" width="14" height="14"/>
		<rect x="2095.07" y="2537.385" fill="#F8FAEB" width="14" height="14"/>
		<rect x="2171.07" y="2443.385" fill="#F8FAEB" width="14" height="14"/>
		<rect x="2163.736" y="2496.719" fill="#F8FAEB" width="14" height="14"/>
		<rect x="2107.736" y="2493.385" fill="#F8FAEB" width="14" height="14"/>
		<rect x="2130.403" y="2432.719" fill="#F8FAEB" width="14" height="14"/>
		<rect x="1919.799" y="2697.255" fill="#F8FAEB" width="14" height="14"/>
	</g>
	<g>
		<g>
			<path fill="#EDEDED" d="M-1316,2195.852c-44,0-80,36-80,80V3604c0,44,36,80,80,80h613.257c44,0,80-36,80-80V2275.852
				c0-44-36-80-80-80H-1316z M-649.372,3494.197c0,44-36,80-80,80h-560c-44,0-80-36-80-80v-1120c0-44,36-80,80-80h560
				c44,0,80,36,80,80V3494.197z"/>
			<path fill="none" stroke="#FFFFFF" stroke-miterlimit="10" d="M-1316,2195.852c-44,0-80,36-80,80V3604c0,44,36,80,80,80h613.257
				c44,0,80-36,80-80V2275.852c0-44-36-80-80-80H-1316z M-649.372,3494.197c0,44-36,80-80,80h-560c-44,0-80-36-80-80v-1120
				c0-44,36-80,80-80h560c44,0,80,36,80,80V3494.197z"/>
		</g>
		<rect x="-1205.912" y="2253.197" width="393.082" height="10"/>
	</g>
</g>
<g id="sprite_sheet_layout">
</g>
<g id="character_sprite_sheet">
</g>
<g id="character_guides">
</g>
</svg>
